<?xml version="1.0" encoding="iso-8859-1"?>
<!-- Generator: Adobe Illustrator 26.5.0, SVG Export Plug-In . SVG Version: 6.00 Build 0)  -->
<svg version="1.1" id="&#x421;&#x43B;&#x43E;&#x439;_1"
	 xmlns="http://www.w3.org/2000/svg" xmlns:xlink="http://www.w3.org/1999/xlink" x="0px" y="0px" viewBox="0 0 64 64"
	 style="enable-background:new 0 0 64 64;" xml:space="preserve">
<g>
	<g>
		<circle style="fill:#FFCE29;" cx="32" cy="32" r="23"/>
		<ellipse style="opacity:0.3;" cx="32" cy="61" rx="19" ry="3"/>
		<g>
			<path style="opacity:0.3;fill:#FFFFFF;" d="M32,14c2.577,0,4.674-1.957,4.946-4.461C35.352,9.19,33.699,9,32,9
				C19.297,9,9,19.297,9,32c0,1.699,0.19,3.352,0.539,4.946C12.044,36.674,14,34.577,14,32C14,22.075,22.075,14,32,14z"/>
			<path style="opacity:0.15;" d="M54.461,27.054C51.956,27.326,50,29.423,50,32c0,9.925-8.075,18-18,18
				c-2.577,0-4.674,1.957-4.946,4.461C28.648,54.81,30.301,55,32,55c12.703,0,23-10.297,23-23C55,30.301,54.81,28.648,54.461,27.054
				z"/>
		</g>
		<path style="fill:none;stroke:#FFFFFF;stroke-width:3;stroke-linecap:round;stroke-linejoin:round;stroke-miterlimit:10;" d="
			M15.047,23.427c1.878-3.699,4.932-6.705,8.666-8.522"/>
	</g>
</g>
<path style="fill:#9C34C2;" d="M40.989,33.479c-0.677-0.892-1.637-1.514-2.881-1.868c1.036-0.416,1.847-1.044,2.428-1.884
	c0.583-0.841,0.872-1.842,0.872-3.006c0-1.764-0.636-3.155-1.913-4.172c-0.832-0.662-1.915-1.086-3.201-1.317v-1.855
	c0-0.909-0.737-1.646-1.646-1.646c-0.909,0-1.646,0.737-1.646,1.646v1.646h-2.195v-1.646c0-0.909-0.737-1.646-1.646-1.646
	s-1.646,0.737-1.646,1.646v1.646h-0.988c-1.683,0-2.524,0.84-2.524,2.523v16.908c0,1.681,0.841,2.523,2.524,2.523h0.988v1.646
	c0,0.909,0.737,1.646,1.646,1.646s1.646-0.737,1.646-1.646v-1.646H33v1.646c0,0.909,0.737,1.646,1.646,1.646
	c0.909,0,1.646-0.737,1.646-1.646v-1.795c1.468-0.223,2.698-0.71,3.667-1.486c1.358-1.09,2.04-2.61,2.04-4.563
	C42,35.472,41.663,34.372,40.989,33.479z M33.219,24.604c2.367,0,3.55,0.903,3.55,2.709c0,1.827-1.183,2.741-3.55,2.741h-4.61v-5.45
	H33.219z M36.488,38.68c-0.583,0.478-1.495,0.716-2.739,0.716H28.61v-5.761h5.139c1.244,0,2.157,0.24,2.739,0.716
	c0.58,0.479,0.872,1.195,0.872,2.149C37.36,37.475,37.069,38.202,36.488,38.68z"/>
</svg>