<?xml version="1.0" encoding="utf-8"?>
<!-- Generator: Adobe Illustrator 27.5.0, SVG Export Plug-In . SVG Version: 6.00 Build 0)  -->
<svg version="1.1" xmlns="http://www.w3.org/2000/svg" xmlns:xlink="http://www.w3.org/1999/xlink" x="0px" y="0px"
	 viewBox="0 0 500 500" style="enable-background:new 0 0 500 500;" xml:space="preserve">
<g id="BACKGROUND">
	<rect style="fill:rgba(0, 0, 0, 0);" width="500" height="500"/>
</g>
<g id="OBJECTS">
	<g>
		<path style="fill:#7EE2B8;" d="M424.905,151.306C363.139,55.827,269.958,35.766,173.97,96.738S-6.447,297.942,88.019,361.246
			c76.055,50.966,104.472-18.515,186.104-7.43C455.891,378.499,485.121,244.389,424.905,151.306z"/>
		<g>
			<g>
				<polygon style="fill:#06C270;" points="396.912,140.01 407.007,178.044 434.638,177.436 407.82,136.024 				"/>
				<g>
					<path style="fill:#06C270;" d="M410.741,83.585c8.438,14.679,16.948,29.318,25.529,43.917
						c-23.654,13.621-49.38,23.467-76.246,29.12c-3.638-16.538-7.197-33.093-10.675-49.664
						C370.995,102.427,391.707,94.52,410.741,83.585z"/>
					<g>
						<path style="fill:#7EE2B8;" d="M432.236,127.44c-21.635,12.074-44.958,20.996-69.263,26.449
							c-3.543-15.163-7.019-30.341-10.427-45.533c19.927-4.451,39.037-11.744,56.756-21.611
							C416.887,100.343,424.531,113.909,432.236,127.44z M363.966,152.631c23.363-5.361,45.803-13.944,66.682-25.462
							c-7.307-12.985-14.558-26-21.754-39.046c-17.25,9.496-35.796,16.573-55.116,20.988
							C357.112,123.632,360.508,138.138,363.966,152.631z"/>
					</g>
					<g>
						<g>
							<path style="fill:#BCD5EA;" d="M375.137,135.37c2.98-0.875,6.05,0.396,6.889,2.919c0.838,2.521-0.986,5.376-4.105,6.294
								c-3.119,0.92-6.238-0.481-6.936-3.044C370.286,138.973,372.158,136.247,375.137,135.37z"/>
							<path style="fill:#BCD5EA;" d="M371.324,122.647c2.818-0.827,5.751,0.489,6.584,3.014c0.832,2.523-0.867,5.337-3.824,6.206
								c-2.956,0.871-5.938-0.568-6.629-3.133C366.762,126.168,368.508,123.476,371.324,122.647z"/>
							<path style="fill:#BCD5EA;" d="M367.543,109.916c2.654-0.779,5.453,0.582,6.279,3.108c0.825,2.525-0.748,5.298-3.542,6.118
								c-2.794,0.822-5.636-0.654-6.321-3.22C363.272,113.354,364.889,110.697,367.543,109.916z"/>
						</g>
						<g>
							<path style="fill:#BCD5EA;" d="M393.193,129.279c2.895-1.103,6.051-0.075,7.085,2.375c1.032,2.448-0.559,5.435-3.59,6.592
								c-3.03,1.158-6.242,0.004-7.139-2.497C388.652,133.247,390.298,130.385,393.193,129.279z"/>
							<path style="fill:#BCD5EA;" d="M388.397,116.894c2.737-1.042,5.762,0.042,6.788,2.494c1.026,2.451-0.443,5.386-3.316,6.482
								c-2.872,1.096-5.95-0.106-6.84-2.609C384.139,120.756,385.66,117.938,388.397,116.894z"/>
							<path style="fill:#BCD5EA;" d="M383.632,104.497c2.579-0.981,5.471,0.157,6.492,2.612c1.02,2.453-0.327,5.338-3.042,6.372
								c-2.714,1.035-5.657-0.215-6.54-2.721C379.656,108.254,381.054,105.481,383.632,104.497z"/>
						</g>
						<g>
							<path style="fill:#BCD5EA;" d="M410.69,121.807c2.798-1.325,6.025-0.546,7.246,1.815c1.221,2.359-0.132,5.462-3.061,6.851
								c-2.929,1.391-6.218,0.49-7.307-1.934C406.478,126.115,407.893,123.135,410.69,121.807z"/>
							<path style="fill:#BCD5EA;" d="M404.94,109.835c2.645-1.252,5.743-0.407,6.959,1.957c1.215,2.363-0.02,5.405-2.796,6.72
								c-2.776,1.317-5.935,0.357-7.017-2.069C401.002,114.015,402.296,111.089,404.94,109.835z"/>
							<path style="fill:#BCD5EA;" d="M399.221,97.848c2.491-1.179,5.462-0.269,6.672,2.098c1.208,2.365,0.092,5.347-2.531,6.589
								c-2.623,1.243-5.651,0.225-6.727-2.203C395.557,101.902,396.73,99.029,399.221,97.848z"/>
						</g>
					</g>
					<path style="fill:#7EE2B8;" d="M442.018,124.093c-1.902,1.161-3.818,2.298-5.748,3.409
						c-8.581-14.598-17.091-29.238-25.529-43.917c1.553-0.892,3.095-1.804,4.625-2.737
						C424.18,95.305,433.064,109.72,442.018,124.093z"/>
				</g>
			</g>
			<g>
				<polygon style="fill:#06C270;" points="138.769,140.01 128.674,178.044 101.043,177.436 127.861,136.024 				"/>
				<g>
					<path style="fill:#06C270;" d="M124.94,83.585c-8.438,14.679-16.948,29.318-25.529,43.917
						c23.655,13.621,49.38,23.467,76.246,29.12c3.638-16.538,7.197-33.093,10.675-49.664
						C164.686,102.427,143.974,94.52,124.94,83.585z"/>
					<g>
						<path style="fill:#7EE2B8;" d="M126.377,86.745c17.719,9.867,36.83,17.16,56.756,21.611
							c-3.408,15.192-6.883,30.37-10.427,45.533c-24.305-5.453-47.628-14.376-69.263-26.449
							C111.149,113.909,118.794,100.343,126.377,86.745z M181.903,109.111c-19.32-4.414-37.867-11.491-55.116-20.988
							c-7.196,13.045-14.447,26.061-21.754,39.046c20.88,11.519,43.319,20.101,66.682,25.462
							C175.173,138.138,178.569,123.632,181.903,109.111z"/>
					</g>
					<g>
						<g>
							<path style="fill:#BCD5EA;" d="M160.544,135.37c-2.98-0.875-6.05,0.396-6.889,2.919c-0.838,2.521,0.986,5.376,4.105,6.294
								c3.119,0.92,6.238-0.481,6.936-3.044C165.395,138.973,163.523,136.247,160.544,135.37z"/>
							<path style="fill:#BCD5EA;" d="M164.357,122.647c-2.818-0.827-5.751,0.489-6.584,3.014c-0.832,2.523,0.866,5.337,3.824,6.206
								c2.956,0.871,5.938-0.568,6.629-3.133C168.919,126.168,167.173,123.476,164.357,122.647z"/>
							<path style="fill:#BCD5EA;" d="M168.138,109.916c-2.655-0.779-5.453,0.582-6.279,3.108c-0.825,2.525,0.748,5.298,3.542,6.118
								c2.794,0.822,5.636-0.654,6.321-3.22C172.408,113.354,170.792,110.697,168.138,109.916z"/>
						</g>
						<g>
							<path style="fill:#BCD5EA;" d="M142.488,129.279c-2.895-1.103-6.051-0.075-7.085,2.375c-1.032,2.448,0.559,5.435,3.59,6.592
								c3.031,1.158,6.242,0.004,7.139-2.497C147.029,133.247,145.383,130.385,142.488,129.279z"/>
							<path style="fill:#BCD5EA;" d="M147.284,116.894c-2.737-1.042-5.762,0.042-6.788,2.494c-1.026,2.451,0.443,5.386,3.316,6.482
								c2.872,1.096,5.95-0.106,6.84-2.609C151.542,120.756,150.021,117.938,147.284,116.894z"/>
							<path style="fill:#BCD5EA;" d="M152.049,104.497c-2.579-0.981-5.471,0.157-6.492,2.612c-1.02,2.453,0.327,5.338,3.042,6.372
								c2.714,1.035,5.657-0.215,6.54-2.721C156.024,108.254,154.626,105.481,152.049,104.497z"/>
						</g>
						<g>
							<path style="fill:#BCD5EA;" d="M124.991,121.807c-2.798-1.325-6.025-0.546-7.246,1.815c-1.221,2.359,0.132,5.462,3.061,6.851
								c2.929,1.391,6.218,0.49,7.307-1.934C129.203,126.115,127.788,123.135,124.991,121.807z"/>
							<path style="fill:#BCD5EA;" d="M130.741,109.835c-2.645-1.252-5.744-0.407-6.959,1.957c-1.215,2.363,0.02,5.405,2.796,6.72
								c2.775,1.317,5.934,0.357,7.017-2.069C134.679,114.015,133.384,111.089,130.741,109.835z"/>
							<path style="fill:#BCD5EA;" d="M136.46,97.848c-2.492-1.179-5.463-0.269-6.672,2.098c-1.208,2.365-0.092,5.347,2.531,6.589
								c2.623,1.243,5.651,0.225,6.727-2.203C140.124,101.902,138.951,99.029,136.46,97.848z"/>
						</g>
					</g>
					<path style="fill:#7EE2B8;" d="M93.663,124.093c1.902,1.161,3.818,2.298,5.748,3.409c8.581-14.598,17.091-29.238,25.529-43.917
						c-1.553-0.892-3.095-1.804-4.625-2.737C111.501,95.305,102.617,109.72,93.663,124.093z"/>
				</g>
			</g>
		</g>
		<g>
			<path style="fill:#06C270;" d="M131.305,379.379c30.141,4.302,53.777-10.734,83.502-20.01
				c5.738-25.876,11.475-51.751,17.213-77.627c-12.133,0.17-24.279,0.451-36.44,0.858
				C174.155,314.859,152.73,347.119,131.305,379.379z"/>
			<path style="fill:#06C270;" d="M381.928,285.775c-13.377-0.92-26.775-1.671-40.189-2.289
				c19.751,17.832,39.503,35.664,59.254,53.496c10.497-6.132,19.316-13.486,26.538-21.786
				C412.33,305.389,397.129,295.582,381.928,285.775z"/>
			<path style="fill:#06C270;" d="M116.32,286.905c-20.144,12.996-40.289,25.993-60.433,38.989
				c5.275,10.558,12.968,20.288,23.415,28.879c26.033-23.503,52.065-47.006,78.098-70.509
				C143.724,284.994,130.03,285.882,116.32,286.905z"/>
			<path style="fill:#06C270;" d="M427.055,289.478c4.487,2.251,8.973,4.501,13.46,6.752c0.895-1.696,1.742-3.415,2.54-5.156
				C437.724,290.521,432.392,289.984,427.055,289.478z"/>
			<path style="fill:#06C270;" d="M267.946,281.591c5.429,24.482,10.858,48.964,16.286,73.446
				c25.686,2.738,48.155,2.182,67.592-1.06c-15.902-23.944-31.804-47.887-47.706-71.831
				C292.075,281.842,280.018,281.656,267.946,281.591z"/>
			<path style="fill:#06C270;" d="M48.124,301.929c7.335-3.68,14.67-7.359,22.005-11.039c-7.682,0.754-15.371,1.564-23.064,2.409
				C47.291,296.21,47.641,299.088,48.124,301.929z"/>
		</g>
		<g>
			<path style="fill:#7EE2B8;" d="M93.336,171.231c-31.271,40.744-50.918,87.199-45.753,127.052
				c133.284-19.701,264.359-21.085,392.974-2.069c19.39-36.864,15.781-84.868-5.599-127.36
				C321.149,179.393,207.274,180.127,93.336,171.231z"/>
			<path style="fill:#06C270;" d="M444.772,287.116c-1.264,3.097-2.657,6.137-4.214,9.098
				c-128.615-19.016-259.69-17.632-392.974,2.069c-0.41-3.162-0.646-6.369-0.75-9.608
				C181.831,268.653,314.565,267.405,444.772,287.116z M439.356,178.321c-1.376-3.179-2.825-6.341-4.397-9.466
				c-113.81,10.539-227.684,11.273-341.623,2.376c-2.357,3.07-4.628,6.181-6.846,9.311
				C204.172,188.808,321.794,188.117,439.356,178.321z M55.886,237.592c-0.62,1.719-1.219,3.437-1.78,5.154
				c135.352-10.384,269.334-10.666,399.125-0.849c-0.001-1.669-0.037-3.343-0.099-5.022
				C323.929,227.128,190.591,227.364,55.886,237.592z"/>
			<g>
				<g>
					<path style="fill:#8BABC1;" d="M320.536,196.862c-2.315,0.013-4.192,1.681-4.192,3.727c0,2.046,1.877,3.701,4.192,3.697
						c2.315-0.004,4.192-1.673,4.192-3.727C324.727,198.504,322.851,196.85,320.536,196.862z"/>
					<path style="fill:#BCD5EA;" d="M320.536,214.809c-2.315-0.005-4.192,1.651-4.192,3.697c0,2.046,1.877,3.714,4.192,3.727
						c2.315,0.012,4.192-1.642,4.192-3.696C324.727,216.482,322.851,214.813,320.536,214.809z"/>
					<path style="fill:#06C270;" d="M263.449,200.692c0,2.023,1.877,3.663,4.192,3.662c2.315-0.001,4.192-1.643,4.192-3.668
						c0-2.025-1.877-3.663-4.192-3.661C265.326,197.027,263.449,198.669,263.449,200.692z"/>
					<path style="fill:#BCD5EA;" d="M294.089,196.971c-2.315,0.007-4.191,1.659-4.192,3.689c0,2.03,1.877,3.674,4.192,3.671
						c2.315-0.003,4.192-1.655,4.192-3.69C298.28,198.606,296.404,196.963,294.089,196.971z"/>
					<path style="fill:#BCD5EA;" d="M346.982,196.699c-2.315,0.018-4.192,1.71-4.192,3.78c0,2.07,1.877,3.745,4.192,3.739
						c2.315-0.006,4.192-1.699,4.192-3.781C351.174,198.355,349.297,196.682,346.982,196.699z"/>
					<path style="fill:#8BABC1;" d="M289.897,218.435c0,2.03,1.877,3.681,4.192,3.689c2.315,0.008,4.192-1.635,4.192-3.67
						c0-2.035-1.877-3.687-4.192-3.69C291.773,214.761,289.897,216.405,289.897,218.435z"/>
					<path style="fill:#BCD5EA;" d="M342.791,218.615c0,2.071,1.877,3.763,4.192,3.78c2.315,0.018,4.192-1.656,4.192-3.738
						c0-2.082-1.877-3.775-4.192-3.781C344.668,214.87,342.79,216.544,342.791,218.615z"/>
					<path style="fill:#8BABC1;" d="M426.321,195.886c-2.315,0.032-4.191,1.839-4.192,4.036c0,2.197,1.876,3.969,4.192,3.958
						c2.315-0.011,4.192-1.819,4.191-4.037C430.513,197.625,428.636,195.853,426.321,195.886z"/>
					<path style="fill:#BCD5EA;" d="M450.833,215.841c-1.337,0.676-2.258,2.02-2.259,3.594c0,2.008,1.488,3.693,3.446,4.068
						C451.691,220.953,451.294,218.398,450.833,215.841z"/>
					<path style="fill:#8BABC1;" d="M373.429,214.966c-2.315-0.008-4.191,1.692-4.192,3.796c0,2.104,1.876,3.827,4.192,3.85
						c2.315,0.023,4.192-1.676,4.192-3.795C377.62,216.698,375.744,214.974,373.429,214.966z"/>
					<path style="fill:#BCD5EA;" d="M422.129,219.172c0,2.197,1.876,4.004,4.192,4.036c2.315,0.033,4.192-1.739,4.191-3.957
						c0-2.219-1.877-4.027-4.191-4.038C424.006,215.203,422.13,216.975,422.129,219.172z"/>
					<path style="fill:#BCD5EA;" d="M399.875,196.211c-2.315,0.028-4.191,1.789-4.192,3.935c0,2.146,1.877,3.879,4.192,3.869
						c2.315-0.009,4.192-1.772,4.192-3.936C404.067,197.915,402.19,196.184,399.875,196.211z"/>
					<path style="fill:#06C270;" d="M373.429,196.482c-2.315,0.022-4.191,1.746-4.192,3.85c0,2.104,1.876,3.804,4.192,3.796
						c2.315-0.008,4.192-1.732,4.192-3.851C377.62,198.158,375.744,196.46,373.429,196.482z"/>
					<path style="fill:#BCD5EA;" d="M267.641,222.07c2.315,0.003,4.192-1.636,4.192-3.661c0-2.025-1.877-3.667-4.192-3.668
						c-2.315-0.001-4.192,1.639-4.192,3.662C263.449,220.426,265.326,222.067,267.641,222.07z"/>
					<path style="fill:#06C270;" d="M399.875,215.079c-2.315-0.009-4.191,1.723-4.192,3.869c0,2.146,1.877,3.908,4.192,3.935
						c2.315,0.027,4.192-1.704,4.192-3.868C404.067,216.851,402.19,215.088,399.875,215.079z"/>
					<path style="fill:#BCD5EA;" d="M188.3,214.809c-2.315,0.004-4.192,1.673-4.192,3.728c0,2.054,1.877,3.709,4.192,3.696
						c2.315-0.012,4.192-1.681,4.192-3.727C192.492,216.46,190.615,214.805,188.3,214.809z"/>
					<path style="fill:#8BABC1;" d="M161.853,214.876c-2.315,0.006-4.192,1.699-4.192,3.781c0,2.082,1.877,3.755,4.192,3.738
						c2.315-0.018,4.192-1.71,4.192-3.78C166.045,216.544,164.168,214.87,161.853,214.876z"/>
					<path style="fill:#06C270;" d="M161.853,196.699c-2.315-0.018-4.192,1.655-4.192,3.738c0,2.082,1.877,3.775,4.192,3.781
						c2.315,0.006,4.192-1.668,4.192-3.739C166.045,198.409,164.168,196.717,161.853,196.699z"/>
					<path style="fill:#BCD5EA;" d="M135.406,196.482c-2.315-0.023-4.192,1.676-4.192,3.795c0,2.119,1.877,3.843,4.192,3.851
						c2.315,0.008,4.192-1.692,4.192-3.796C139.598,198.228,137.721,196.505,135.406,196.482z"/>
					<path style="fill:#BCD5EA;" d="M108.96,222.883c2.315-0.028,4.192-1.789,4.192-3.935c0-2.146-1.877-3.879-4.192-3.869
						c-2.315,0.009-4.192,1.772-4.192,3.936C104.769,221.18,106.645,222.911,108.96,222.883z"/>
					<path style="fill:#8BABC1;" d="M104.769,200.08c0,2.164,1.877,3.927,4.192,3.936c2.315,0.01,4.192-1.723,4.192-3.869
						c0-2.146-1.877-3.908-4.192-3.935C106.645,196.184,104.769,197.915,104.769,200.08z"/>
					<path style="fill:#06C270;" d="M135.406,214.966c-2.315,0.007-4.192,1.732-4.192,3.851c0,2.119,1.877,3.818,4.192,3.795
						c2.315-0.022,4.192-1.746,4.192-3.85C139.598,216.658,137.721,214.959,135.406,214.966z"/>
					<path style="fill:#06C270;" d="M210.555,218.454c0,2.035,1.877,3.678,4.192,3.67c2.315-0.007,4.192-1.659,4.192-3.689
						c0-2.03-1.877-3.674-4.192-3.671C212.432,214.766,210.555,216.418,210.555,218.454z"/>
					<path style="fill:#8BABC1;" d="M241.194,197.025c-2.315-0.002-4.192,1.636-4.192,3.661c0,2.025,1.877,3.667,4.192,3.668
						s4.192-1.639,4.192-3.662C245.386,198.669,243.509,197.027,241.194,197.025z"/>
					<path style="fill:#BCD5EA;" d="M188.3,196.862c-2.315-0.013-4.192,1.642-4.192,3.696c0,2.054,1.877,3.723,4.192,3.727
						c2.315,0.004,4.192-1.651,4.192-3.697C192.492,198.543,190.615,196.875,188.3,196.862z"/>
					<path style="fill:#06C270;" d="M82.515,223.209c2.315-0.033,4.191-1.839,4.191-4.036c0-2.197-1.877-3.969-4.191-3.958
						c-2.315,0.011-4.191,1.819-4.191,4.038C78.323,221.47,80.2,223.242,82.515,223.209z"/>
					<path style="fill:#BCD5EA;" d="M241.194,214.741c-2.315,0.001-4.192,1.643-4.192,3.668c0,2.024,1.877,3.663,4.192,3.661
						c2.315-0.003,4.192-1.644,4.192-3.667C245.386,216.38,243.509,214.74,241.194,214.741z"/>
					<path style="fill:#BCD5EA;" d="M214.747,196.971c-2.315-0.007-4.192,1.635-4.192,3.67c0,2.035,1.877,3.687,4.192,3.69
						c2.315,0.003,4.192-1.641,4.192-3.671C218.939,198.629,217.062,196.978,214.747,196.971z"/>
					<path style="fill:#BCD5EA;" d="M78.323,199.843c0,2.219,1.877,4.026,4.191,4.037c2.315,0.011,4.191-1.761,4.191-3.958
						s-1.877-4.004-4.191-4.036C80.2,195.853,78.323,197.625,78.323,199.843z"/>
				</g>
				<g>
					<path style="fill:#06C270;" d="M126.237,272.526c2.356-0.174,4.146-2.017,3.997-4.122c-0.149-2.105-2.191-3.676-4.561-3.5
						c-2.369,0.175-4.158,2.029-3.996,4.133C121.839,271.141,123.88,272.7,126.237,272.526z"/>
					<path style="fill:#BCD5EA;" d="M72.43,277.393c2.351-0.252,4.081-2.152,3.863-4.251c-0.218-2.099-2.312-3.602-4.676-3.349
						c-2.364,0.253-4.093,2.165-3.862,4.263C67.986,276.154,70.079,277.645,72.43,277.393z"/>
					<path style="fill:#BCD5EA;" d="M156.23,248.249c-0.115-2.107-2.152-3.71-4.549-3.572c-2.398,0.138-4.238,1.963-4.11,4.07
						c0.128,2.107,2.164,3.698,4.549,3.561C154.504,252.171,156.345,250.357,156.23,248.249z"/>
					<path style="fill:#BCD5EA;" d="M128.919,249.972c-0.149-2.105-2.213-3.674-4.609-3.497c-2.396,0.177-4.206,2.032-4.044,4.137
						c0.162,2.104,2.225,3.662,4.608,3.486C127.257,253.922,129.068,252.078,128.919,249.972z"/>
					<path style="fill:#BCD5EA;" d="M98.63,267.126c-2.367,0.214-4.126,2.097-3.929,4.198c0.197,2.102,2.264,3.627,4.618,3.414
						c2.354-0.213,4.114-2.085,3.93-4.187S100.997,266.912,98.63,267.126z"/>
					<path style="fill:#8BABC1;" d="M97.653,256.335c2.38-0.216,4.162-2.089,3.978-4.191c-0.184-2.102-2.273-3.637-4.667-3.421
						c-2.393,0.216-4.174,2.101-3.977,4.203C93.184,255.027,95.273,256.551,97.653,256.335z"/>
					<path style="fill:#06C270;" d="M183.56,246.975c-0.08-2.109-2.09-3.745-4.489-3.646c-2.399,0.098-4.269,1.893-4.176,4.002
						c0.093,2.108,2.103,3.733,4.489,3.635C181.771,250.867,183.64,249.084,183.56,246.975z"/>
					<path style="fill:#8BABC1;" d="M153.18,270.755c2.358-0.136,4.178-1.948,4.063-4.056c-0.115-2.107-2.13-3.711-4.501-3.575
						c-2.371,0.136-4.19,1.961-4.063,4.067C148.806,269.299,150.821,270.891,153.18,270.755z"/>
					<path style="fill:#BCD5EA;" d="M234.101,268.1c2.361-0.019,4.267-1.74,4.256-3.851c-0.011-2.111-1.944-3.811-4.318-3.792
						c-2.374,0.02-4.279,1.752-4.256,3.862C229.806,266.43,231.74,268.12,234.101,268.1z"/>
					<path style="fill:#BCD5EA;" d="M180.142,269.428c2.36-0.097,4.208-1.879,4.128-3.989c-0.08-2.109-2.069-3.746-4.441-3.648
						c-2.373,0.097-4.221,1.891-4.128,4C175.793,267.899,177.782,269.525,180.142,269.428z"/>
					<path style="fill:#BCD5EA;" d="M445.818,276.177c-0.166,1.379,0.523,2.676,1.677,3.491c0.722-2.226,1.375-4.479,1.958-6.758
						C447.567,273.111,446.03,274.415,445.818,276.177z"/>
					<path style="fill:#BCD5EA;" d="M448.038,257.832c-0.246,2.035,1.377,3.903,3.645,4.278c0.394-2.496,0.717-5.012,0.96-7.549
						C450.328,254.358,448.284,255.789,448.038,257.832z"/>
					<path style="fill:#06C270;" d="M238.254,245.771c-0.011-2.111-1.966-3.811-4.367-3.792c-2.401,0.02-4.328,1.752-4.304,3.863
						c0.024,2.111,1.979,3.8,4.367,3.78C236.337,249.603,238.264,247.882,238.254,245.771z"/>
					<path style="fill:#8BABC1;" d="M210.903,246.149c-0.045-2.11-2.028-3.778-4.428-3.719c-2.4,0.059-4.299,1.823-4.24,3.933
						c0.058,2.11,2.041,3.767,4.428,3.708C209.05,250.012,210.949,248.259,210.903,246.149z"/>
					<path style="fill:#BCD5EA;" d="M207.117,268.543c2.361-0.058,4.238-1.81,4.193-3.92c-0.046-2.11-2.007-3.779-4.381-3.721
						c-2.374,0.059-4.251,1.822-4.192,3.932C202.796,266.943,204.756,268.601,207.117,268.543z"/>
					<path style="fill:#BCD5EA;" d="M288.26,260.902c-2.374-0.058-4.335,1.611-4.38,3.721c-0.045,2.11,1.832,3.862,4.192,3.92
						c2.361,0.058,4.322-1.6,4.38-3.71C292.51,262.724,290.633,260.96,288.26,260.902z"/>
					<path style="fill:#BCD5EA;" d="M337.946,266.7c-0.115,2.108,1.705,3.92,4.063,4.056c2.358,0.135,4.373-1.457,4.501-3.564
						c0.127-2.107-1.691-3.931-4.063-4.067C340.076,262.988,338.061,264.592,337.946,266.7z"/>
					<path style="fill:#06C270;" d="M70.463,259.02c2.378-0.255,4.129-2.157,3.91-4.256c-0.218-2.1-2.333-3.6-4.724-3.344
						c-2.391,0.256-4.141,2.17-3.91,4.268C65.971,257.786,68.085,259.275,70.463,259.02z"/>
					<path style="fill:#BCD5EA;" d="M347.618,248.747c0.128-2.107-1.713-3.932-4.11-4.07c-2.398-0.138-4.435,1.465-4.549,3.572
						c-0.115,2.108,1.726,3.921,4.111,4.059C345.454,252.445,347.491,250.854,347.618,248.747z"/>
					<path style="fill:#8BABC1;" d="M288.714,242.43c-2.4-0.059-4.383,1.609-4.428,3.719c-0.046,2.111,1.853,3.863,4.24,3.922
						c2.387,0.058,4.37-1.598,4.428-3.708C293.012,244.252,291.115,242.488,288.714,242.43z"/>
					<path style="fill:#BCD5EA;" d="M256.935,245.771c-0.011,2.111,1.916,3.832,4.304,3.852c2.388,0.019,4.343-1.67,4.366-3.78
						c0.024-2.11-1.903-3.843-4.304-3.863C258.901,241.96,256.946,243.661,256.935,245.771z"/>
					<path style="fill:#06C270;" d="M315.361,261.791c-2.373-0.097-4.361,1.539-4.441,3.648c-0.08,2.109,1.769,3.892,4.128,3.989
						c2.36,0.097,4.348-1.529,4.441-3.637C319.581,263.682,317.733,261.889,315.361,261.791z"/>
					<path style="fill:#BCD5EA;" d="M364.955,268.404c-0.149,2.105,1.641,3.948,3.997,4.122c2.356,0.174,4.398-1.385,4.56-3.489
						c0.162-2.104-1.627-3.958-3.996-4.133C367.146,264.728,365.105,266.298,364.955,268.404z"/>
					<path style="fill:#BCD5EA;" d="M316.118,243.329c-2.399-0.099-4.41,1.537-4.489,3.646c-0.08,2.109,1.79,3.893,4.176,3.991
						c2.386,0.098,4.396-1.526,4.489-3.635C320.387,245.222,318.517,243.427,316.118,243.329z"/>
					<path style="fill:#8BABC1;" d="M265.406,264.32c0.024-2.111-1.882-3.843-4.256-3.862c-2.374-0.019-4.308,1.682-4.319,3.792
						c-0.011,2.111,1.895,3.832,4.256,3.851C263.449,268.12,265.382,266.43,265.406,264.32z"/>
					<path style="fill:#BCD5EA;" d="M429.449,255.688c0.231-2.098-1.519-4.012-3.909-4.268c-2.391-0.256-4.505,1.244-4.724,3.344
						c-0.218,2.099,1.533,4.002,3.91,4.256C427.103,259.275,429.218,257.786,429.449,255.688z"/>
					<path style="fill:#06C270;" d="M374.923,250.612c0.162-2.105-1.648-3.96-4.044-4.137c-2.396-0.177-4.459,1.392-4.609,3.497
						c-0.149,2.106,1.662,3.949,4.045,4.126C372.698,254.274,374.76,252.717,374.923,250.612z"/>
					<path style="fill:#BCD5EA;" d="M49.371,276.177c-0.145-1.199-0.911-2.178-1.973-2.754c-0.231,2.243-0.402,4.474-0.504,6.691
						C48.519,279.403,49.573,277.851,49.371,276.177z"/>
					<path style="fill:#06C270;" d="M391.94,270.551c-0.184,2.103,1.576,3.974,3.93,4.187c2.354,0.213,4.421-1.312,4.618-3.414
						c0.197-2.101-1.562-3.984-3.929-4.198C394.192,266.912,392.124,268.448,391.94,270.551z"/>
					<path style="fill:#06C270;" d="M418.896,273.142c-0.218,2.1,1.512,4,3.863,4.251c2.351,0.252,4.444-1.239,4.675-3.337
						c0.231-2.098-1.497-4.01-3.862-4.263C421.208,269.54,419.115,271.043,418.896,273.142z"/>
					<path style="fill:#BCD5EA;" d="M402.201,252.926c0.197-2.102-1.584-3.986-3.977-4.203c-2.394-0.217-4.483,1.318-4.667,3.421
						c-0.183,2.103,1.598,3.976,3.978,4.191C399.916,256.551,402.005,255.027,402.201,252.926z"/>
				</g>
			</g>
		</g>
	</g>
	<g>
		<g>
			<g>
				<path style="fill:#E5556B;" d="M302.365,439.982c-0.652,1.627-1.528,2.957-2.103,3.965l-51.21-16.637
					c1.076-8.265,5.454-16.185,9.59-24.66l20.049,6.514c3.255,5.155,7.589,9.755,13.042,13.795c1.869,1.391,3.866,2.703,6.006,3.958
					c1.646,0.964,3.094,2.256,3.978,3.85C303.267,433.555,303.595,436.928,302.365,439.982z"/>
				<path style="fill:#FFFFFF;" d="M249.05,427.306l51.213,16.639c0.576-1.008,1.45-2.334,2.107-3.966
					c0.385-0.957,0.61-1.946,0.699-2.938l-52.286-16.987C249.98,422.457,249.369,424.866,249.05,427.306z"/>
				<path style="fill:#15324F;" d="M291.734,422.957l-0.642,0.336c-1.471,0.77-2.66,0.713-4.287,0.064
					c-3.625-1.446-9.567-4.667-12.962-9.346c-1.926-2.642-3.668-5.179-3.763-7.646c-0.05-1.313,0.061-2.524,0.229-3.548
					c0.29-1.768,2.204-2.811,4.084-2.2l2.047,0.665c1.377,0.447,2.318,1.668,2.303,2.988l-0.005,0.44
					c-0.033,3.112,0.999,6.239,3.07,8.813C284.565,416.948,287.868,420.093,291.734,422.957z"/>
				<g>
					<path style="fill:#FFFFFF;" d="M289.075,418.871c-0.053-0.243-0.328-0.449-0.582-0.373c-2.154,0.645-4.027,2.085-5.163,4.031
						c-0.316,0.542,0.499,1.082,0.816,0.538c1.005-1.722,2.64-3.041,4.555-3.614C288.954,419.378,289.135,419.143,289.075,418.871z"
						/>
					<path style="fill:#FFFFFF;" d="M286.678,416.289c-0.062-0.284-0.318-0.397-0.582-0.373c-2.649,0.238-5.188,1.319-7.219,3.032
						c-0.482,0.407,0.17,1.135,0.65,0.73c1.912-1.613,4.288-2.583,6.777-2.807C286.568,416.848,286.729,416.524,286.678,416.289z"/>
					<path style="fill:#FFFFFF;" d="M282.999,412.61c-2.789,0.625-5.407,1.867-7.664,3.618c-0.498,0.387,0.156,1.114,0.65,0.73
						c2.124-1.648,4.6-2.806,7.222-3.393C283.821,413.428,283.615,412.472,282.999,412.61z"/>
					<path style="fill:#FFFFFF;" d="M280.948,409.53c-3.199,0.709-6.289,1.878-9.154,3.47c-0.549,0.305-0.108,1.177,0.444,0.871
						c2.796-1.554,5.795-2.694,8.919-3.386C281.77,410.349,281.564,409.394,280.948,409.53z"/>
					<path style="fill:#FFFFFF;" d="M289.643,407.338c-0.863,0.294-1.433,0.899-2.036,1.553c-0.661,0.716-1.395,1.256-2.347,1.519
						c-1.726,0.477-3.476,0.113-5.158-0.391c2.399-1.422,4.077-3.927,4.331-6.755c0.035-0.387-0.391-0.597-0.71-0.458
						c-1.724,0.752-3.139,2.058-4.093,3.646c-0.031-1.316-0.238-2.628-0.637-3.887c-0.18-0.566-0.435-1.183-1.082-1.318
						c-0.56-0.117-1.055,0.247-1.34,0.702c-0.673,1.074-0.598,2.613-0.321,3.796c0.293,1.255,0.894,2.395,1.546,3.499
						c-1.753-0.775-3.28-1.988-4.431-3.543c-0.375-0.507-1.102,0.148-0.73,0.65c1.348,1.821,3.216,3.218,5.327,4.024
						c0.014,0.207,0.137,0.389,0.34,0.422c0.147,0.166,0.395,0.239,0.589,0.152c0.12-0.022,0.229-0.084,0.302-0.187
						c1.934,0.611,3.962,1.131,5.983,0.678c0.932-0.209,1.827-0.624,2.539-1.267c0.682-0.616,1.23-1.568,2.137-1.878
						C290.44,408.093,290.239,407.135,289.643,407.338z M283.305,404.127c-0.473,2.159-1.897,4.086-3.824,5.169
						C279.994,407.143,281.396,405.254,283.305,404.127z M277.22,405.604c-0.164-0.672-0.231-1.366-0.144-2.055
						c0.028-0.219,0.212-1.416,0.628-1.354c0.25,0.037,0.359,0.659,0.414,0.845c0.091,0.312,0.172,0.627,0.241,0.945
						c0.149,0.685,0.248,1.382,0.285,2.082c0.045,0.845,0.003,1.689-0.107,2.525C277.985,407.647,277.479,406.668,277.22,405.604z"
						/>
				</g>
			</g>
			<g>
				<g>
					<path style="fill:#E5556B;" d="M152.558,425.507c-2.85,5.158-5.946,10.011-9.33,14.505c-1.934,2.568-6.504,5.894-7.24,9.023
						l-1.785,6.606c-0.267,0.988,0.3,2.013,1.285,2.291c8.222,2.321,21.344,2.417,31.153,1.679c0.958-0.072,1.743-0.788,1.918-1.732
						l1.044-5.637c0.11-0.468,0.175-0.945,0.194-1.425l0.842-21.058L152.558,425.507z"/>
					<path style="fill:#FFFFFF;" d="M135.488,457.933c8.222,2.321,21.344,2.417,31.153,1.679c0.958-0.072,1.743-0.788,1.918-1.732
						l1.044-5.637c0.11-0.468,0.175-0.945,0.194-1.425l0.014-0.348c-4.832,0.763-12.909,1.685-20.728,0.963
						c-4.859-0.449-9.301-1.677-12.91-2.994c-0.076,0.2-0.138,0.399-0.185,0.597l-1.785,6.606
						C133.936,456.629,134.503,457.655,135.488,457.933z"/>
				</g>
				<path style="fill:#15324F;" d="M151.378,437.851l4.45-12.536c0,0,1.651-3.644,6.134-2.597c4.88,1.14,4.638,5.131,4.638,5.131
					l-0.792,13.396C160.513,442.178,155.702,441.046,151.378,437.851z"/>
				<g>
					<path style="fill:#FFFFFF;" d="M166.99,432.97c-4.088-2.328-8.736-3.528-13.44-3.483c-0.629,0.006-0.593,0.983,0.037,0.977
						c4.533-0.044,8.995,1.121,12.934,3.364C167.069,434.14,167.536,433.281,166.99,432.97z"/>
					<path style="fill:#FFFFFF;" d="M167.141,435.724c-4.573-2.214-9.613-3.317-14.693-3.206c-0.629,0.014-0.593,0.991,0.037,0.977
						c4.904-0.107,9.772,0.949,14.187,3.087C167.237,436.855,167.708,435.998,167.141,435.724z"/>
					<path style="fill:#FFFFFF;" d="M167.382,439.458c-4.761-3.156-10.518-4.662-16.215-4.254c-0.625,0.045-0.593,1.022,0.037,0.977
						c5.54-0.397,11.081,1.066,15.71,4.135C167.438,440.665,167.903,439.804,167.382,439.458z"/>
					<path style="fill:#FFFFFF;" d="M168.97,427.874c-0.354-0.518-1.251-0.647-1.821-0.74c-1.383-0.225-2.824-0.064-4.106,0.508
						c-0.596,0.265-1.139,0.614-1.633,1.023c0.536-1.255,1.349-2.382,2.4-3.291c0.201-0.174,0.159-0.52-0.018-0.691
						c-0.205-0.199-0.492-0.154-0.691,0.017c-0.727,0.629-1.347,1.37-1.858,2.18c0.055-1.082,0.019-2.169-0.147-3.243
						c-0.04-0.263-0.221-0.478-0.507-0.47c-0.241,0.006-0.51,0.246-0.47,0.507c0.23,1.493,0.217,2.997,0.011,4.478
						c-1.059-1.916-2.791-3.459-4.836-4.259c-0.853-0.334-3.556-1.303-3.597,0.402c-0.018,0.759,0.632,1.4,1.109,1.917
						c0.59,0.639,1.246,1.213,1.938,1.737c1.524,1.153,3.199,2.074,4.878,2.977c0.047,0.1,0.13,0.173,0.235,0.215
						c0.131,0.102,0.311,0.146,0.474,0.097c0.207,0.011,0.407-0.092,0.447-0.36c0.002-0.011,0.005-0.022,0.007-0.033
						c0.006-0.004,0.011-0.01,0.017-0.015c1.199,0.01,2.398-0.05,3.584-0.238c0.738-0.117,1.471-0.265,2.194-0.453
						c0.633-0.165,1.398-0.306,1.953-0.67C169.046,429.133,169.347,428.426,168.97,427.874z M153.268,425.268
						c-0.171-0.195-0.553-0.542-0.571-0.82c-0.01-0.161,0.018-0.158,0.19-0.154c0.158,0.004,0.317,0.035,0.473,0.062
						c0.611,0.105,1.214,0.279,1.782,0.526c1.125,0.487,2.13,1.207,2.963,2.106c0.759,0.82,1.322,1.789,1.695,2.836
						c-0.007,0.026-0.013,0.052-0.02,0.078C157.43,428.635,155.047,427.299,153.268,425.268z M167.443,428.872
						c-1.122,0.361-2.276,0.632-3.443,0.797c-0.82,0.116-1.645,0.168-2.471,0.19c1.168-1.167,2.763-1.853,4.451-1.849
						c0.566,0.001,1.125,0.083,1.67,0.235c0.167,0.047,0.546,0.076,0.479,0.283C168.062,428.73,167.615,428.816,167.443,428.872z"/>
				</g>
			</g>
			<g>
				<path style="fill:#FFFFFF;" d="M315.102,297.274c-10.421-22.153-29.083-43.104-39.983-57.518l-34.228,5.33l-31.32-3.577
					l-23.989,100.353c-13.56,17.05-26.884,47.671-35.592,87.104l24.791,6.942c24.786-51.406,47.995-99.891,65.373-139.388
					l0.001,0.003c0,0,7.765-13.8,13.987-15.08c0.707-0.145,1.376-0.248,2.046-0.352l27.316,33.663
					c-9.92,12.617-18.123,52.72-27.223,87.531l27.937,8.95l32.018-94.286C318.428,310.492,318.004,303.444,315.102,297.274z"/>
				<path style="fill:#E5556B;" d="M157.561,431.085c3.572-22.602,11.321-44.531,22.897-64.29
					c3.546-6.053,7.71-11.801,10.416-18.308c2.787-6.7,4.203-13.915,6.008-20.918c3.75-14.551,7.913-28.993,12.291-43.366
					c4.203-13.795,8.606-27.529,13.036-41.252l-3.52-0.402c-8.434,26.131-16.754,52.311-23.776,78.862
					c-1.88,7.11-3.387,14.367-5.652,21.366c-2.252,6.961-6.106,12.889-9.89,19.081c-7.29,11.927-13.243,24.679-17.704,37.927
					c-3.33,9.888-5.815,20.057-7.464,30.36L157.561,431.085z"/>
				<path style="fill:#BCD5EA;" d="M255.693,266.561c-0.339-1.931-0.779-3.843-1.288-5.736c-1.129-4.199-2.588-8.299-4.043-12.393
					c-0.249-0.7-1.285-0.181-1.037,0.515c2.325,6.541,4.732,13.195,5.582,20.123c0.191,1.558,0.225,3.329-0.856,4.594
					c-1.012,1.184-2.566,1.201-3.668,0.128c-1.16-1.13-1.388-2.786-1.534-4.322c-0.156-1.643-0.344-3.255-0.743-4.86
					c-0.897-3.603-2.458-6.994-4.012-10.35c-0.313-0.676-1.351-0.162-1.037,0.515c1.584,3.422,3.189,6.879,4.035,10.571
					c0.408,1.781,0.481,3.577,0.739,5.378c0.226,1.572,0.776,3.097,2.024,4.142c2.515,2.105,5.58,0.094,6.163-2.745
					C256.392,270.297,256.01,268.365,255.693,266.561z"/>
			</g>
			<g>
				<g>
					<g>
						<path style="fill:#15324F;" d="M212.987,360.555l-0.389-0.072c-11.224-2.083-24.001-5.141-33.652-12.038l-0.466-0.333
							l4.994-7.201l0.485,0.381c7.668,6.029,22.416,8.019,34.406,9.079l0.945,0.084L212.987,360.555z"/>
					</g>
					<g>
						<path style="fill:#15324F;" d="M196.255,399.359l-0.418-0.086c-14.412-2.968-26.159-7.238-35.911-13.057l-0.421-0.251
							l3.516-9.065l0.59,0.346c9.776,5.743,21.975,9.718,37.293,12.152l0.82,0.131L196.255,399.359z"/>
					</g>
					<g>
						<path style="fill:#15324F;" d="M180.469,429.095l-0.435-0.123c-10.85-3.064-23.046-7.115-31.242-13.926l-0.356-0.296
							l3.483-6.9l0.544,0.354c8.558,5.583,21.655,9.533,32.108,12.351l0.731,0.197L180.469,429.095z"/>
					</g>
				</g>
				<g>
					<path style="fill:#F6C158;" d="M229.039,342.322c-0.669,1.282-1.339,2.564-2.019,3.855c-1.104,2.11-2.196,4.211-3.311,6.33
						c-0.245,0.453-0.481,0.917-0.726,1.37l0.01,0.001c-1.092,2.09-2.205,4.19-3.308,6.289
						c-12.917,24.587-26.375,49.922-39.822,75.994c-1.646,3.176-5.121,5.022-8.648,4.486c-0.505-0.075-0.931-0.268-1.311-0.549
						c-0.331-0.237-0.637-0.544-0.909-0.899c-1.539-1.984-2.438-5.435-5.546-7.168c-0.118-0.069-0.236-0.128-0.355-0.188
						c-0.267-0.131-0.536-0.22-0.799-0.269c-3.401-0.742-6.412,4.342-8.683,3.054c-0.403-0.232-0.783-0.492-1.141-0.782
						c-0.329-0.267-0.626-0.553-0.901-0.858c-2.062-2.264-2.756-5.559-1.643-8.556c6.195-16.753,23.879-56.004,34.414-79.058
						c0.264-0.574,0.517-1.139,0.77-1.704c0.515-1.109,0.995-2.168,1.463-3.188c0.229-0.515,0.467-1.01,0.684-1.495
						c0.169-0.377,0.336-0.733,0.503-1.089c0.192-0.426,0.383-0.832,0.563-1.228c0.299-0.643,0.576-1.268,0.852-1.862
						c0.575-1.247,1.09-2.356,1.522-3.307c0.252-0.544,0.479-1.029,0.682-1.465c0.685-1.505,2.023-2.568,3.607-3.032
						c2.875-0.835,5.598-2.141,8.336-3.21c0.504-0.201,1.007-0.391,1.509-0.561c3.776-1.315,7.647-1.94,12.083-0.045
						c0.02,0.012,0.039,0.023,0.069,0.035c3.502,1.505,5.46,3.496,6.879,5.594l-0.001,0.01c0.298,0.429,0.565,0.855,0.82,1.302
						c1.243,2.137,2.147,4.312,3.736,6.156C229.867,337.957,230.06,340.37,229.039,342.322z"/>
					<g>
						<path style="fill:#E08546;" d="M151.571,432.988c3.462-5.85,6.845-11.746,10.12-17.701
							c4.822-8.739,9.449-17.593,13.857-26.554c4.419-8.96,8.631-18.027,12.644-27.178c1.633-3.738,3.226-7.49,4.79-11.253
							c0.891-2.145,1.773-4.29,2.634-6.437c0.158-0.377,0.307-0.765,0.466-1.143c0.873-2.167,1.725-4.345,2.568-6.523
							c0.296-0.746,0.582-1.492,0.867-2.238c1.303-3.383,2.565-6.769,3.807-10.166c0.504-0.201,1.007-0.391,1.509-0.561
							c-1.636,4.524-3.342,9.034-5.077,13.521c-0.16,0.397-0.31,0.806-0.47,1.203c-0.692,1.77-1.394,3.53-2.107,5.299
							c-0.149,0.388-0.308,0.775-0.468,1.173c-0.861,2.147-1.742,4.292-2.633,6.427c-2.052,4.945-4.164,9.866-6.346,14.762
							c-4.063,9.128-8.333,18.159-12.802,27.096c-4.456,8.897-9.109,17.698-13.958,26.384c-2.768,4.958-5.594,9.871-8.499,14.748
							L151.571,432.988z"/>
						<path style="fill:#E08546;" d="M224.682,330.13c-1.889,4.64-3.816,9.257-5.794,13.86c-0.912,2.143-1.844,4.286-2.796,6.426
							c-0.061,0.149-0.123,0.308-0.194,0.457c-0.157,0.357-0.314,0.704-0.471,1.061c-0.93,2.112-1.87,4.223-2.81,6.323
							c-3.15,6.964-6.388,13.881-9.735,20.749c-4.491,9.262-9.159,18.43-14.004,27.504c-4.869,9.124-9.905,18.144-15.108,27.072
							c-1.26,2.161-2.533,4.361-3.865,6.517c-0.331-0.237-0.637-0.544-0.909-0.899c2.04-3.261,3.953-6.613,5.875-9.954
							c5.117-8.872,10.058-17.838,14.83-26.897c4.819-9.137,9.46-18.358,13.923-27.673c2.667-5.567,5.274-11.169,7.812-16.796
							c0.95-2.1,1.889-4.191,2.819-6.302c0.218-0.506,0.447-1.011,0.655-1.518c0.493-1.1,0.978-2.211,1.462-3.321
							c0.448-1.031,0.896-2.063,1.334-3.095c2.102-4.922,4.144-9.867,6.156-14.826C224.16,329.247,224.427,329.684,224.682,330.13z"
							/>
						<path style="fill:#E08546;" d="M216.984,323.224c-2.126,6.033-4.442,12.002-6.907,17.909
							c-0.475,1.132-0.951,2.274-1.437,3.404c-0.436,1.012-0.872,2.014-1.308,3.015c-0.205,0.466-0.411,0.932-0.615,1.388
							c-0.919,2.102-1.869,4.202-2.827,6.281c-2.707,5.871-5.523,11.683-8.418,17.449c-4.655,9.271-9.516,18.436-14.438,27.577
							c-4.84,8.993-9.631,18.02-14.717,26.884c-0.939,1.641-1.887,3.272-2.866,4.9c-0.118-0.069-0.236-0.128-0.355-0.188
							c-0.267-0.131-0.536-0.22-0.799-0.269c1.67-2.776,3.29-5.576,4.871-8.399c5.032-8.96,9.866-18.024,14.721-27.088
							c4.878-9.103,9.677-18.241,14.249-27.498c2.262-4.584,4.475-9.191,6.609-13.825c0.969-2.089,1.908-4.179,2.837-6.281
							c0.204-0.445,0.398-0.902,0.603-1.358c0.932-2.132,1.843-4.275,2.735-6.42c0.035-0.069,0.071-0.148,0.097-0.218
							c2.429-5.828,4.7-11.739,6.801-17.702c0.359,0.127,0.719,0.243,1.096,0.401C216.934,323.2,216.954,323.211,216.984,323.224z"
							/>
					</g>
					<g>
						<path style="fill:#E08546;" d="M184.339,345.369c10.933,6.881,22.787,11.805,35.347,14.802
							c1.104-2.099,2.212-4.205,3.307-6.293c-12.756-2.78-24.77-7.846-35.736-14.89C186.369,340.928,185.39,343.068,184.339,345.369
							z"/>
						<path style="fill:#E08546;" d="M187.76,337.894c10.898,7.239,23.302,11.38,35.953,14.611c1.109-2.116,2.208-4.22,3.308-6.325
							c-12.817-3.205-25.347-7.236-36.322-14.68C189.926,333.177,188.932,335.339,187.76,337.894z"/>
					</g>
				</g>
			</g>
			<g>
				<g>
					<g>
						<path style="fill:#15324F;" d="M300.91,327.094c-7.889-0.537-15.903-1.903-22.927-5.118l-0.521-0.239l3.535-8.019l0.548,0.282
							c8.673,4.463,23.529,3.617,35.505,2.378l0.943-0.097l-4.29,11.117l-0.395,0.004
							C309.327,327.432,305.135,327.382,300.91,327.094z"/>
					</g>
					<g>
						<path style="fill:#15324F;" d="M301.147,370.893l-0.423-0.047c-14.624-1.628-26.713-4.799-36.961-9.696l-0.443-0.212
							l2.667-9.349l0.618,0.29c10.158,4.77,22.522,7.597,37.781,8.636c0.157,0.011,0.314,0.02,0.473,0.031l0.829,0.054
							L301.147,370.893z"/>
					</g>
					<g>
						<path style="fill:#15324F;" d="M288.945,400.901l-0.447-0.06c-11.174-1.49-23.822-3.765-32.905-9.345l-0.394-0.242
							l2.468-7.326l0.589,0.273c7.232,3.365,17.574,5.728,33.537,7.662l0.751,0.091L288.945,400.901z"/>
					</g>
				</g>
				<g>
					<path style="fill:#F6C158;" d="M334.666,314.219c-0.28,0.665-0.56,1.33-0.851,2.005c-0.902,2.144-1.825,4.307-2.748,6.46
						c-0.148,0.368-0.305,0.735-0.463,1.102c-0.923,2.163-1.848,4.346-2.783,6.529c-11.019,25.808-22.544,52.44-34.009,79.851
						c-1.365,3.246-4.422,5.254-7.612,4.873c-0.455-0.062-0.853-0.221-1.213-0.481c-0.312-0.215-0.599-0.5-0.852-0.834
						c-1.522-1.942-2.235-5.421-4.378-6.18c-0.339-0.115-0.736-0.132-1.17-0.069c-0.443,0.051-0.933,0.202-1.445,0.382
						c-2.45,0.895-5.44,2.815-6.964,1.956c-0.374-0.209-0.725-0.458-1.053-0.725c-0.309-0.256-0.597-0.531-0.842-0.833
						c-1.936-2.164-2.674-5.42-1.782-8.464c4.966-16.99,19.449-56.929,28.096-80.448c0.088-0.239,0.175-0.468,0.252-0.698
						c0.765-2.082,1.479-4.025,2.142-5.807c0.15-0.398,0.289-0.797,0.427-1.176l0.01,0.001c0.114-0.329,0.228-0.648,0.341-0.957
						c0.812-2.181,1.502-4.064,2.063-5.557c0.211-0.557,0.399-1.065,0.563-1.514c0.564-1.534,1.733-2.659,3.137-3.186
						c2.557-0.97,4.952-2.389,7.371-3.582c0.454-0.224,0.897-0.429,1.35-0.633c3.054-1.365,6.219-2.109,9.846-0.933
						c0.329,0.114,0.66,0.208,0.997,0.354c0.02,0.012,0.039,0.023,0.07,0.025l-0.001,0.01c3.196,1.351,5.028,3.242,6.38,5.275
						c0.278,0.417,0.535,0.843,0.782,1.268l-0.001,0.01c1.196,2.083,2.082,4.216,3.576,5.972
						C335.251,309.827,335.517,312.224,334.666,314.219z"/>
					<g>
						<path style="fill:#E08546;" d="M312.253,296.232c-1.216,4.206-2.452,8.41-3.736,12.581c-0.249,0.8-0.486,1.59-0.734,2.38
							c-0.444,1.42-0.888,2.84-1.342,4.259c-0.118,0.39-0.247,0.78-0.376,1.169c-0.701,2.199-1.412,4.397-2.143,6.583
							c-1.777,5.403-3.634,10.78-5.541,16.134c-3.33,9.31-6.837,18.527-10.542,27.648c-3.683,9.092-7.553,18.09-11.6,26.984
							c-2.316,5.07-4.692,10.116-7.115,15.118c-0.309-0.256-0.597-0.531-0.842-0.833c2.899-5.99,5.731-12.036,8.463-18.12
							c4.02-8.957,7.864-18.008,11.509-27.153c3.656-9.155,7.114-18.396,10.394-27.719c1.456-4.138,2.862-8.291,4.238-12.455
							c0.731-2.186,1.442-4.384,2.134-6.594c0.139-0.389,0.257-0.779,0.376-1.169c0.712-2.208,1.404-4.418,2.076-6.639
							c0.129-0.4,0.259-0.809,0.379-1.21c1.051-3.441,2.062-6.885,3.052-10.33C311.357,296.641,311.8,296.436,312.253,296.232z"/>
						<path style="fill:#E08546;" d="M330.326,302.232l-0.001,0.01c-1.331,4.096-2.691,8.18-4.092,12.25
							c-0.741,2.186-1.492,4.371-2.253,6.545c-0.14,0.409-0.291,0.828-0.431,1.237c-0.127,0.359-0.253,0.718-0.38,1.077
							c-0.645,1.825-1.3,3.649-1.966,5.472c-2.798,7.794-5.704,15.531-8.729,23.217c-3.717,9.447-7.582,18.823-11.615,28.106
							c-4.045,9.323-8.249,18.563-12.609,27.711c-1.06,2.215-2.123,4.481-3.264,6.701c-0.312-0.215-0.599-0.5-0.852-0.834
							c1.73-3.364,3.334-6.819,4.946-10.252c4.284-9.082,8.412-18.256,12.372-27.523c4.005-9.336,7.854-18.764,11.534-28.275
							c2.454-6.348,4.838-12.72,7.144-19.129c0.792-2.182,1.574-4.365,2.335-6.55c0.15-0.409,0.301-0.827,0.442-1.236
							c0.178-0.519,0.367-1.037,0.545-1.556c0.572-1.656,1.145-3.322,1.698-4.99c1.505-4.401,2.96-8.825,4.395-13.251
							C329.822,301.381,330.079,301.807,330.326,302.232z"/>
						<path style="fill:#E08546;" d="M323.165,295.679l-0.001,0.01c-1.542,5.552-3.224,11.053-5.014,16.507
							c-0.566,1.718-1.143,3.435-1.729,5.151c-0.165,0.469-0.319,0.938-0.484,1.407c-0.14,0.409-0.291,0.828-0.431,1.237
							c-0.761,2.184-1.543,4.357-2.343,6.518c-2.408,6.565-4.944,13.07-7.58,19.538c-3.851,9.469-7.89,18.843-11.987,28.183
							c-4.028,9.212-8.026,18.446-12.27,27.53c-0.896,1.91-1.802,3.819-2.738,5.716c-0.443,0.051-0.933,0.202-1.445,0.382
							c1.656-3.328,3.254-6.701,4.802-10.088c4.199-9.179,8.231-18.452,12.273-27.724c4.055-9.312,8.041-18.659,11.829-28.112
							c2.092-5.228,4.124-10.481,6.057-15.772c0.801-2.171,1.582-4.344,2.334-6.529c0.15-0.398,0.29-0.807,0.43-1.216
							c0.596-1.706,1.182-3.412,1.748-5.129c0.155-0.479,0.32-0.948,0.465-1.428c1.802-5.463,3.475-10.985,5.018-16.557
							c0.329,0.114,0.66,0.208,0.997,0.354C323.115,295.665,323.135,295.677,323.165,295.679z"/>
					</g>
					<g>
						<path style="fill:#E08546;" d="M327.821,330.313c0.931-2.181,1.862-4.362,2.785-6.531
							c-11.663-2.063-22.772-6.168-33.621-10.944c-0.731,1.98-1.535,4.163-2.397,6.508
							C305.336,324.064,316.328,328.086,327.821,330.313z"/>
						<path style="fill:#E08546;" d="M299.83,305.152c-0.634,1.708-1.449,3.908-2.409,6.505c10.814,4.949,22.05,8.604,33.65,11.031
							c0.92-2.161,1.837-4.319,2.749-6.468C322.078,313.881,310.736,310.141,299.83,305.152z"/>
					</g>
				</g>
			</g>
		</g>
		<g>
			<g>
				<g>
					<g>
						<g>
							<polygon style="fill:#FFB99F;" points="261.566,163.401 252.572,185.615 299.081,220.147 317.259,206.767 							"/>
							<path style="fill:#FFB99F;" d="M292.921,215.136l36.092-50.208l12.216,8.171l-23.777,45.006
								c-3.096,6.196-11.136,7.928-16.509,3.557L292.921,215.136z"/>
						</g>
						<g>
							<g>
								<path style="fill:#FFFFFF;" d="M335.876,144.358l-0.7-0.383c-2.932-1.605-6.527,0.437-6.65,3.777l-0.122,3.3l0,0.004l0,0
									l-0.218,6.298c-0.059,1.721,0.194,3.439,0.748,5.07l1.706,5.018l8.682,6.439c6.191-3.529,15.015-11.992,18.795-17.086
									c2.401-2.449,3.868-11.238-2.46-9.045c1.009-2.226-2.165-5.805-4.266-4.228c1.916-3.36-2.322-5.615-4.166-4.129
									c0.61-1.578,0.035-3.399-1.438-4.322c-0.021-0.013-0.489-0.174-0.51-0.187c-1.86-1.144-6.884,4.199-7.743,6.207
									L335.876,144.358z"/>
								<path style="fill:#FFFFFF;" d="M329.809,158.942l-12.334,18.833c4.597,6.276,10.813,9.885,19.879,7.404l6.806-15.883
									L329.809,158.942z"/>
							</g>
							<path style="fill:#BCD5EA;" d="M327.592,180.183c-3.039-1.287-5.745-3.303-7.896-5.798l-0.702,1.072
								c2.199,2.472,4.899,4.477,7.956,5.813c3.554,1.553,7.493,2.111,11.34,1.725l0.566-1.322
								C335.056,182.173,331.154,181.691,327.592,180.183z"/>
						</g>
					</g>
					<g>
						<path style="fill:#E5556B;" d="M273.617,161.353c9.204,11.343,19.645,22.291,27.39,28.664
							c-4.433,9.252-7.533,21.374-15.2,28.142c-9.684-4.9-21.625-18.074-27.227-28.513L273.617,161.353z"/>
						<path style="fill:#B23850;" d="M280.58,214.888c7.146-6.094,10.842-15.378,15.188-23.556c0.703-1.324,1.442-2.628,2.22-3.908
							c-0.285-0.254-0.578-0.523-0.867-0.786c-4.856,7.97-7.903,17.051-14.075,24.186c-1.045,1.208-2.186,2.333-3.41,3.357
							C279.952,214.422,280.266,214.658,280.58,214.888z"/>
					</g>
				</g>
				<g>
					<path style="fill:#15324F;" d="M367.124,156.427c-0.939-0.652-2.366-0.388-3.842,0.554l-67.693-47.965l-5.843,7.743
						l68.418,47.192c-0.582,1.996-0.398,3.711,0.658,4.444c1.672,1.16,4.886-0.578,7.179-3.883
						C368.292,161.206,368.796,157.587,367.124,156.427z"/>
					<path style="fill:#F6C158;" d="M187.085,64.397c32.735,22.593,76.368,50.641,107.613,66.587
						c7.277-5.729,12.067-13.166,14.409-22.284c-30.123-22.708-72.827-50.833-105.293-68.721
						C195.831,45.87,190.416,54.16,187.085,64.397z"/>
					<path style="fill:#E08546;" d="M187.085,64.397c32.735,22.593,76.368,50.641,107.613,66.587c0,0-22.301-19.14-44.717-33.539
						C231.418,85.52,188.54,65.4,187.085,64.397z"/>
					<path style="fill:#15324F;" d="M268.336,116.67c8.855,5.074,17.725,9.934,26.439,14.381
						c7.277-5.729,12.288-13.044,14.629-22.162c-7.622-5.746-15.618-11.526-23.39-16.966L268.336,116.67z"/>
				</g>
				<g>
					<path style="fill:#FFFFFF;" d="M329.978,144.561c0,0,8.96-3.402,9.981-1.09c1.021,2.312-2.856,7.756-5.087,7.696
						c-2.231-0.06-5.473-0.373-5.473-0.373L329.978,144.561z"/>
					<path style="fill:#FFFFFF;" d="M338.695,139.298c0,0-3.669,5.921-1.011,8.191c2.658,2.27,7.491-2.549,7.491-2.549
						s-4.852,3.991-2.865,5.89s6.693-1.53,6.693-1.53s-4.838,3.333-2.728,5.395c2.11,2.062,6.303-1.323,6.303-1.323
						s-3.283,2.537-1.323,4.074c1.96,1.537,7.883-5.564,7.883-5.564S346.361,140.425,338.695,139.298z"/>
				</g>
			</g>
			<g>
				<path style="fill:#B23850;" d="M243.64,150.941c0,0,24.984,6.889,29.978,10.412c-4.724,71.102-1.556,57.786,3.616,82.233
					c-23.201,0.099-43.762,41.61-81.172,32.03c8.023-53.176,0.843-70.863,15.002-112.774
					C219.867,157.278,234.313,152.301,243.64,150.941z"/>
				<g>
					<path style="fill:#FFFFFF;" d="M234.269,154.938c-7.385,2.758-16.662,6.043-24.057,10.499
						c-0.579,1.783-1.129,3.535-1.632,5.236c7.542-5.615,18.791-9.47,27.234-12.623
						C237.906,157.269,236.349,154.161,234.269,154.938z"/>
					<path style="fill:#FFFFFF;" d="M273.497,163.18c-7.351-3.166-15.039-5.49-22.939-6.888c-0.012,0.08-0.03,0.158-0.061,0.226
						c-0.275,0.607-0.617,1.16-1.001,1.702c-0.276,0.391-0.547,0.786-0.781,1.204c0.12,0.05,0.251,0.091,0.399,0.116
						c8.329,1.433,16.437,3.892,24.142,7.324C273.334,165.663,273.414,164.434,273.497,163.18z"/>
				</g>
				<path style="fill:#421721;" d="M223.072,199.031c-0.637,6.215-0.317,12.511,1.9,18.685c14.227-3.03,28.147-4.512,41.729-4.295
					c-2.1-5.116-1.149-11.016,1.176-17.268C253.039,198.548,238.096,199.39,223.072,199.031z"/>
				<path style="fill:#E5556B;" d="M275.384,235.896c-3.178,0.45-6.309,1.338-9.289,2.536c-7.112,2.86-13.342,7.508-19.29,12.257
					c-6.01,4.798-11.879,9.856-18.558,13.722c-4.857,2.811-10.091,4.802-15.568,5.764c1.898-11.475,0.539-23.131-0.891-34.579
					c-1.374-10.993-2.791-22.108-1.476-33.182c0.714-6.01,2.28-11.941,5.058-17.339c0.337-0.656-0.617-1.313-0.958-0.651
					c-4.987,9.69-6.114,20.705-5.697,31.457c0.448,11.549,2.661,22.931,3.47,34.449c0.469,6.674,0.421,13.406-0.7,20.016
					c-1.435,0.211-2.882,0.374-4.346,0.44c-3.442,0.155-6.895-0.096-10.282-0.703c-0.052,0.377-0.103,0.753-0.157,1.133
					c9.394,1.669,19.264,0.497,27.978-3.618c14.039-6.63,24.135-19.166,37.881-26.264c4.075-2.104,8.553-3.681,13.124-4.315
					C275.583,236.635,275.483,236.259,275.384,235.896z"/>
			</g>
			<g>
				<g>
					<g>
						<polygon style="fill:#FFB99F;" points="214.683,167.995 206.584,189.377 257.792,200.54 272.731,181.719 						"/>
						<path style="fill:#FFB99F;" d="M250.113,199.376l14.632,2.772c8.752,1.658,17.699-1.693,23.209-8.691l31.575-40.105
							l-8.919-10.441L250.113,199.376z"/>
					</g>
					<g>
						<path style="fill:#FFFFFF;" d="M309.023,129.944l-3.997-2.752c-3.111-1.193-2.757,3.091-2.432,6.407l0.322,3.276l0,0.003l0,0
							l0.628,6.25c0.172,1.708,0.652,3.371,1.418,4.908l2.357,4.729l9.439,5.198c5.643-4.315,13.414-12.673,16.466-18.211
							c3.735-5.686,0.901-10.177-3.641-8.605c0.698-2.334-1.332-6.543-4.78-3.605c1.74-2.899-2.691-5.307-4.669-3.521
							c0.392-1.641-0.421-3.363-2-4.077c-0.022-0.01-0.045-0.02-0.067-0.03c-1.991-0.881-6.888,3.799-7.468,5.897L309.023,129.944z"
							/>
						<path style="fill:#FFFFFF;" d="M307.083,144.102l-14.664,12.441c0.766,8.861,4.716,14.851,12.281,17.583l16.346-19.829
							L307.083,144.102z"/>
						<path style="fill:#BCD5EA;" d="M306.082,172.447c-4.68-4.185-8.195-9.65-9.964-15.692c-0.268-0.915-0.487-1.843-0.676-2.778
							l-1.069,0.907c1.488,6.66,4.924,12.855,9.85,17.619c0.336,0.325,0.684,0.637,1.032,0.948L306.082,172.447z"/>
					</g>
				</g>
				<g>
					<path style="fill:#E5556B;" d="M211.064,162.842c0,0-12.009,15.665-10.589,26.837c1.42,11.172,45.946,18.446,45.946,18.446
						c7.296-8.637,11.798-19.341,12.237-33.048C242.824,171.865,225.907,171.575,211.064,162.842z"/>
					<path style="fill:#B23850;" d="M241.747,207.272c5.76-7.204,9.979-15.62,12.267-24.569c0.691-2.703,1.195-5.451,1.531-8.22
						c-0.379-0.068-0.76-0.131-1.139-0.197c-1.29,10.709-5.342,21.034-11.658,29.781c-0.729,1.01-1.496,1.989-2.283,2.953
						C240.914,207.109,241.339,207.193,241.747,207.272z"/>
					<path style="fill:#FFFFFF;" d="M235.577,171.23c-1.912,5.09-4.674,10.283-8.102,15.555l10.891,2.749
						c3.13-5.101,5.327-10.708,6.779-16.722C241.954,172.326,238.758,171.824,235.577,171.23z"/>
					<path style="fill:#F6C158;" d="M225.592,176.585c-0.228,3.351-3.251,5.479-6.603,5.25c-3.352-0.228-4.544-3.48-4.316-6.832
						c0.228-3.352,3.737-5.004,7.089-4.776C225.114,170.456,225.82,173.234,225.592,176.585z"/>
				</g>
			</g>
		</g>
		<g>
			<g>
				<path style="fill:#15324F;" d="M223.84,123.271c0,0-2.715-19.536,0.536-22.374c3.252-2.838,21.315-7.363,30.429-3.761
					c9.114,3.602,11.528,4.203,12.918,9.159c1.39,4.957-1.379,17.507-1.379,17.507L223.84,123.271z"/>
				<g>
					<path style="fill:#FFB99F;" d="M263.306,106.159c-3.315-5.632-10.054-7.787-16.951-8.102s-13.805,1.218-17.618,6.525
						c-7.736,10.766-5.752,32.773,3.415,40.509c3.229,2.725,7.566,4.143,11.86,4.338c4.294,0.196,8.742-0.821,12.206-3.241
						C266.051,139.319,270.03,117.584,263.306,106.159z"/>
					<path style="fill:#FFB99F;" d="M257.686,144.986l-13.48,0.195L230.8,143.76c4.295,2.918,3.584,11.728,3.584,11.728
						c2.09,2.506,9.223,2.831,9.223,2.831s7.133,0.325,9.442-1.98C253.049,156.339,253.143,147.501,257.686,144.986z"/>
				</g>
				<path style="fill:#15324F;" d="M266.843,101.829c0,0,3.357-6.269-6.329-9.358c-4.635-1.478-9.475-2.404-14.344-2.544
					c-2.463-0.071-4.934,0.063-7.368,0.454c-4.971,0.798-10.143,3.552-12.015,8.467c-0.876,2.3-1.177,4.81-1.589,7.22
					c-0.453,2.65-0.824,5.314-1.286,7.964c-0.276,1.582-0.294,3.225-0.237,4.831c0.016,0.455,0.597,4.721,0.467,4.789
					c4.101-2.14,6.978-7.464,6.914-13.68c-0.002-0.199-0.017-0.394-0.025-0.591c7.327-1.423,19.095-8.262,24.797-3.326
					c0.99,0.857,1.77,1.652,2.398,2.382c-0.104,0.738-0.16,1.493-0.152,2.266c0.059,5.927,3.511,10.898,8.234,12.618
					c0.027,0.301,0.039,0.479,0.039,0.479s0.066-0.143,0.179-0.403c0.116,0.04,0.229,0.087,0.347,0.122
					c0.044-0.408,0.08-0.816,0.109-1.224C268.581,118.259,272.284,107.116,266.843,101.829z"/>
				<g>
					<g>
						<path style="fill:#FFB99F;" d="M269.529,131.499c-2.413,2.625-6.058,3.2-8.142,1.284c-2.083-1.915-1.816-5.596,0.597-8.221
							c2.413-2.625,6.059-3.2,8.142-1.284C272.209,125.193,271.942,128.874,269.529,131.499z"/>
						<path style="fill:#C16B5B;" d="M268.038,124.999c-0.825-0.369-1.887-0.279-2.838,0.242c-0.475,0.259-0.811,0.559-1.031,0.917
							c-0.291,0.473-0.342,1.047-0.134,1.497c0.185,0.404,0.534,0.651,0.841,0.869c0.222,0.158,0.433,0.307,0.559,0.493
							c0.193,0.286,0.177,0.706-0.038,0.977c-0.214,0.27-0.62,0.379-0.943,0.255c-0.19-0.073-0.402,0.022-0.475,0.211
							c-0.072,0.189,0.021,0.402,0.211,0.475c0.207,0.08,0.428,0.11,0.647,0.095c0.435-0.029,0.859-0.234,1.134-0.58
							c0.413-0.52,0.443-1.295,0.072-1.844c-0.2-0.297-0.488-0.501-0.742-0.681c-0.255-0.181-0.495-0.352-0.599-0.578
							c-0.105-0.227-0.068-0.542,0.094-0.806c0.065-0.106,0.157-0.203,0.259-0.299c0.364-0.027,0.827,0.055,1.073,0.291
							c0.278,0.267,0.427,0.67,0.39,1.052c-0.02,0.202,0.128,0.381,0.33,0.401c0.02,0.002,0.04,0.002,0.06,0.001
							c0.176-0.012,0.323-0.149,0.34-0.331c0.06-0.61-0.169-1.228-0.612-1.654c-0.165-0.158-0.365-0.259-0.573-0.338
							c0.596-0.203,1.196-0.21,1.676,0.004c0.593,0.265,1.077,1.018,0.825,1.675c-0.072,0.189,0.022,0.402,0.211,0.475
							c0.19,0.072,0.401-0.021,0.475-0.211C269.616,126.652,269.062,125.458,268.038,124.999z"/>
					</g>
					<g>
						<path style="fill:#FFB99F;" d="M220.234,129.251c2.164,2.833,5.742,3.738,7.991,2.02c2.249-1.718,2.318-5.408,0.154-8.241
							c-2.164-2.834-5.742-3.738-7.991-2.02C218.139,122.727,218.07,126.417,220.234,129.251z"/>
						<path style="fill:#C16B5B;" d="M222.31,122.914c0.855-0.292,1.904-0.107,2.804,0.5c0.449,0.301,0.757,0.631,0.943,1.007
							c0.247,0.498,0.245,1.074-0.003,1.503c-0.221,0.385-0.591,0.6-0.917,0.789c-0.236,0.137-0.459,0.266-0.601,0.441
							c-0.218,0.268-0.24,0.687-0.051,0.976c0.189,0.288,0.583,0.434,0.915,0.34c0.196-0.055,0.398,0.059,0.454,0.253
							c0.055,0.194-0.058,0.398-0.253,0.454c-0.214,0.061-0.437,0.07-0.653,0.036c-0.431-0.068-0.834-0.311-1.077-0.681
							c-0.364-0.555-0.323-1.33,0.096-1.843c0.226-0.277,0.532-0.455,0.801-0.611c0.27-0.157,0.525-0.305,0.65-0.521
							c0.125-0.216,0.117-0.534-0.02-0.811c-0.055-0.111-0.138-0.217-0.231-0.321c-0.36-0.06-0.828-0.021-1.095,0.192
							c-0.301,0.241-0.486,0.628-0.484,1.012c0.001,0.203-0.162,0.368-0.365,0.369c-0.02,0-0.04-0.001-0.06-0.005
							c-0.174-0.028-0.308-0.178-0.309-0.36c-0.005-0.613,0.28-1.208,0.76-1.591c0.179-0.142,0.387-0.225,0.602-0.285
							c-0.574-0.257-1.171-0.318-1.669-0.148c-0.615,0.21-1.166,0.916-0.974,1.593c0.055,0.195-0.059,0.398-0.253,0.454
							c-0.195,0.055-0.397-0.058-0.453-0.253C220.588,124.416,221.249,123.277,222.31,122.914z"/>
					</g>
				</g>
				<g>
					<path style="fill:#C16B5B;" d="M246.679,121.454c-0.02-0.2-0.187-0.358-0.392-0.361c-0.22-0.003-0.401,0.173-0.404,0.394
						c-0.023,1.399-0.248,2.781-0.639,4.103c-0.172-0.057-0.382-0.122-0.649-0.176c-0.284-0.045-0.597-0.061-0.952,0.043
						c-0.35,0.094-0.75,0.394-0.908,0.76c-0.166,0.356-0.179,0.674-0.161,0.945c0.019,0.265,0.07,0.512,0.151,0.754
						c0.154,0.481,0.415,0.919,0.766,1.257c0.112,0.108,0.281,0.146,0.434,0.083c0.207-0.085,0.306-0.321,0.221-0.528l-0.009-0.022
						c-0.143-0.348-0.23-0.699-0.257-1.043c-0.024-0.331-0.031-0.714,0.048-0.754c0.045-0.021,0.057-0.019,0.114-0.035
						c0.054-0.008,0.174-0.013,0.305,0.011c0.266,0.033,0.738,0.243,1.385,0.19l0.076-0.006c0.265-0.022,0.496-0.215,0.554-0.489
						l0-0.001C246.737,124.887,246.842,123.151,246.679,121.454z"/>
					<g>
						<path style="fill:#15324F;" d="M248.749,133.303c0.603-0.126,1.255-0.284,1.813-0.024c0.674,0.314,0.956,1.136,0.966,1.88
							c0.023,1.647-0.983,3.21-2.378,4.085c-1.396,0.875-3.125,1.114-4.758,0.906c-1.683-0.215-3.374-0.942-4.38-2.308
							c-0.779-1.057-1.778-3.67-0.372-4.638c0.593-0.409,1.361-0.319,2.02-0.166c1.1,0.255,2.17,0.49,3.302,0.55
							C246.229,133.656,247.506,133.562,248.749,133.303z"/>
						<path style="fill:#B23850;" d="M249.549,138.959c-0.802-1.185-2.223-2.009-3.878-2.084c-1.87-0.085-3.516,0.814-4.359,2.181
							c0.907,0.6,1.993,0.956,3.079,1.094c1.634,0.209,3.363-0.031,4.758-0.906C249.288,139.157,249.419,139.059,249.549,138.959z"
							/>
						<path style="fill:#FFFFFF;" d="M250.99,133.597c-0.12-0.131-0.262-0.24-0.428-0.318c-0.558-0.261-1.21-0.102-1.813,0.024
							c-1.243,0.259-2.519,0.353-3.787,0.285c-1.133-0.06-2.203-0.296-3.302-0.55c-0.659-0.153-1.427-0.243-2.02,0.166
							c-0.039,0.027-0.069,0.059-0.104,0.088c0.416,0.438,1.023,0.804,1.421,0.994c0.853,0.408,1.798,0.581,2.735,0.71
							c1.561,0.215,3.14,0.319,4.712,0.218c0.66-0.042,1.359-0.137,1.871-0.556C250.61,134.384,250.821,134.002,250.99,133.597z"/>
					</g>
					<g>
						<g>
							<path style="fill:#15324F;" d="M236.315,122.749c-0.073,0.928,0.619,1.739,1.547,1.812c0.928,0.073,1.739-0.619,1.812-1.547
								c0.073-0.928-0.62-1.739-1.547-1.812C237.199,121.129,236.388,121.821,236.315,122.749z"/>
							<path style="fill:#FFFFFF;" d="M236.848,123.097c-0.027,0.34,0.227,0.637,0.566,0.664c0.34,0.027,0.637-0.227,0.664-0.566
								c0.027-0.34-0.227-0.637-0.567-0.664C237.172,122.503,236.875,122.757,236.848,123.097z"/>
						</g>
						<g>
							<path style="fill:#15324F;" d="M249.307,123.774c-0.073,0.928,0.619,1.739,1.547,1.812c0.928,0.073,1.739-0.619,1.812-1.547
								c0.073-0.927-0.62-1.739-1.547-1.812C250.192,122.154,249.38,122.847,249.307,123.774z"/>
							<path style="fill:#FFFFFF;" d="M249.84,124.122c-0.027,0.34,0.227,0.637,0.567,0.664c0.34,0.027,0.637-0.227,0.664-0.567
								c0.027-0.34-0.227-0.637-0.566-0.664C250.164,123.529,249.867,123.782,249.84,124.122z"/>
						</g>
					</g>
					<g>
						<path style="fill:#15324F;" d="M241.276,117.523c-2.303-1.66-5.453-1.823-7.868-0.283c-0.452,0.288-0.578,0.93-0.286,1.375
							c0.298,0.455,0.921,0.576,1.375,0.287c0.991-0.632,2.208-0.843,3.363-0.674c0.585,0.086,1.155,0.267,1.68,0.538
							c0.464,0.239,0.906,0.633,1.461,0.407c0.133-0.054,0.251-0.141,0.347-0.247C241.677,118.562,241.714,117.838,241.276,117.523z
							"/>
						<path style="fill:#15324F;" d="M257.636,118.58c-2.303-1.66-5.453-1.823-7.868-0.283c-0.452,0.288-0.578,0.93-0.286,1.375
							c0.298,0.455,0.921,0.576,1.375,0.287c0.991-0.632,2.208-0.843,3.363-0.674c0.585,0.086,1.155,0.267,1.68,0.538
							c0.464,0.239,0.906,0.633,1.461,0.407c0.133-0.054,0.251-0.141,0.347-0.247C258.036,119.619,258.073,118.895,257.636,118.58z"
							/>
					</g>
				</g>
				<path style="fill:#E5556B;" d="M230.076,154.39l3.928-3.479c0,0,2.318,3.146,5.046,4.366c0.972,0.434,1.757,1.197,2.179,2.174
					l1.823,4.211C243.052,161.661,233.71,159.014,230.076,154.39z"/>
				<path style="fill:#E5556B;" d="M257.355,155.19c-1.804,3.372-5.191,4.753-9.187,6.82l0.243-3.568
					c0.075-1.104,0.692-2.135,1.69-2.612c1.856-0.886,3.07-2.343,3.607-4.402L257.355,155.19z"/>
			</g>
			<g>
				<g>
					<path style="fill:#B23850;" d="M218.832,128.854c-1.819-4.486-2.609-9.682-2.826-15.274l4.855,0.221l2.864,15.276
						L218.832,128.854z"/>
					<path style="fill:#B23850;" d="M270.961,131.232c2.225-4.186,3.48-9.312,4.204-14.954l-4.855-0.221l-4.242,14.952
						L270.961,131.232z"/>
				</g>
				<g>
					<g>
						<path style="fill:#15324F;" d="M265.867,145.531l-43.263-1.973c-0.434-0.02-0.771-0.388-0.751-0.822
							c0.02-0.434,0.388-0.771,0.823-0.751l43.263,1.973c0.434,0.02,0.771,0.388,0.751,0.822
							C266.669,145.215,266.301,145.551,265.867,145.531z"/>
					</g>
					<g>
						<path style="fill:#15324F;" d="M270.911,132.018l-52.1-2.376c-0.434-0.02-0.771-0.388-0.751-0.823
							c0.02-0.434,0.388-0.771,0.823-0.751l52.1,2.376c0.434,0.02,0.771,0.388,0.751,0.822S271.345,132.038,270.911,132.018z"/>
					</g>
					<g>
						<path style="fill:#15324F;" d="M244.953,156.093l-2.484-0.113c-11.031-0.503-20.146-9.19-22.166-21.125l-3.697-21.836
							c-0.072-0.429,0.216-0.835,0.645-0.908c0.427-0.071,0.835,0.216,0.908,0.645l3.697,21.836
							c1.895,11.197,10.401,19.345,20.685,19.814l2.484,0.113c10.283,0.469,19.496-6.871,22.403-17.849l5.669-21.409
							c0.112-0.421,0.543-0.67,0.963-0.56c0.421,0.112,0.671,0.543,0.56,0.963l-5.669,21.409
							C265.852,148.775,255.983,156.596,244.953,156.093z"/>
					</g>
					<g>
						<g>
							<path style="fill:#15324F;" d="M237.138,156.005c-0.434-0.02-0.771-0.388-0.751-0.822l0.531-11.649l-3.281-13.787
								c-0.1-0.423,0.161-0.848,0.584-0.948c0.42-0.102,0.847,0.161,0.948,0.584l3.306,13.894c0.017,0.071,0.024,0.145,0.02,0.218
								l-0.536,11.76C237.94,155.688,237.572,156.025,237.138,156.005z"/>
						</g>
						<g>
							<path style="fill:#15324F;" d="M250.26,156.603c-0.434-0.02-0.771-0.388-0.751-0.822l0.536-11.76
								c0.003-0.073,0.017-0.146,0.04-0.215l4.557-13.535c0.139-0.412,0.588-0.633,0.997-0.495c0.413,0.139,0.634,0.585,0.495,0.998
								l-4.522,13.431l-0.531,11.649C251.062,156.287,250.694,156.623,250.26,156.603z"/>
						</g>
					</g>
					<g>
						<path style="fill:#15324F;" d="M243.973,150.215c-4.751-0.217-9.128-1.824-12.327-4.526
							c-6.691-5.637-10.096-19.346-7.752-31.208c0.084-0.427,0.501-0.707,0.925-0.62c0.426,0.084,0.704,0.499,0.62,0.925
							c-2.243,11.351,0.93,24.397,7.222,29.699c2.935,2.479,6.978,3.955,11.383,4.156c4.411,0.201,8.574-0.9,11.722-3.102
							c6.751-4.708,11.097-17.411,9.896-28.919c-0.045-0.432,0.269-0.82,0.701-0.865c0.429-0.049,0.82,0.269,0.865,0.701
							c1.255,12.026-3.384,25.368-10.561,30.374C253.238,149.23,248.729,150.432,243.973,150.215z"/>
					</g>
				</g>
			</g>
			<g>
				<path style="fill:#B23850;" d="M270.809,100.747c-1.4-7.695-11.606-16.72-23.282-16.842l-1.05-0.048
					c-11.639-0.942-22.624,7.117-24.719,14.652c-2.663,9.583-4.603,15.584-4.603,15.584l28.424,0.983l28.396,1.608
					C273.975,116.685,272.589,110.532,270.809,100.747z"/>
				<g>
					<path style="fill:#E5556B;" d="M275.003,114.295c-0.211-0.827-0.867-1.466-1.699-1.656l-0.202-0.046l0.737,3.66
						c-4.959-1.858-16.152-7.706-26.885-8.711c-10.405-0.975-24.947,4.023-29.538,5.841l0.98-3.285l-0.206,0.028
						c-0.846,0.114-1.557,0.69-1.842,1.495l-0.92,2.592l1.718,0.078l56.82,2.592l1.718,0.078L275.003,114.295z"/>
					<g>
						<path style="fill:#E5556B;" d="M259.993,108.59c-0.223-2.39-0.439-4.784-0.864-7.148c-0.419-2.329-1.081-4.596-1.929-6.803
							c-1.367-3.559-3.182-6.917-5.072-10.224c-0.337-0.07-0.677-0.133-1.019-0.19c0.972,1.691,1.933,3.389,2.826,5.123
							c2.165,4.203,3.863,8.579,4.596,13.268c0.689,4.41,0.781,8.898,1.61,13.286l0.811,0.046
							C260.478,113.518,260.223,111.054,259.993,108.59z"/>
						<path style="fill:#E5556B;" d="M231.002,114.573c1.226-4.294,1.726-8.755,2.813-13.084c1.156-4.603,3.246-8.805,5.784-12.794
							c1.047-1.646,2.159-3.249,3.281-4.845c-0.345,0.025-0.689,0.057-1.032,0.096c-2.183,3.121-4.296,6.299-5.981,9.72
							c-1.045,2.121-1.911,4.319-2.54,6.6c-0.639,2.315-1.072,4.68-1.511,7.04c-0.453,2.433-0.932,4.863-1.625,7.24L231.002,114.573
							z"/>
					</g>
					<path style="fill:#FFFFFF;" d="M242.201,94.231l-0.269,5.903c-0.109,2.386,1.737,4.408,4.123,4.517
						c2.386,0.109,4.408-1.737,4.517-4.123l0.269-5.903C248.024,93.114,245.144,92.982,242.201,94.231z"/>
				</g>
			</g>
		</g>
	</g>
	<g>
		<g>
			
				<ellipse transform="matrix(0.7229 -0.6909 0.6909 0.7229 -121.74 150.6676)" style="fill:#F6C158;" cx="126.987" cy="227.123" rx="19.729" ry="19.729"/>
			<g>
				<path style="fill:#E08546;" d="M126.987,207.395c-0.307,0-0.614,0.008-0.922,0.023c-1.094,4.47-1.559,9.093-1.329,13.691
					c0.335,6.708,2.114,13.303,5.179,19.279c0.971,1.894,2.083,3.711,3.299,5.457c0.296-0.098,0.587-0.204,0.875-0.314
					c-6.689-9.542-9.649-21.419-8.089-33.042C126.231,210.772,126.566,209.072,126.987,207.395z"/>
				<path style="fill:#E08546;" d="M120.88,237.157c-2.366-6.191-3.691-12.804-3.843-19.432c-0.061-2.659,0.042-5.352,0.57-7.959
					c-0.351,0.189-0.695,0.388-1.031,0.596c-0.332,1.96-0.452,3.961-0.454,5.948c-0.005,3.364,0.289,6.731,0.863,10.046
					c1.152,6.654,3.447,13.118,6.739,19.014c0.251,0.449,0.522,0.885,0.784,1.327c0.368,0.047,0.74,0.081,1.113,0.107
					C123.756,243.741,122.162,240.512,120.88,237.157z"/>
			</g>
		</g>
		<g>
			<g>
				<g>
					<polygon style="fill:#F6C158;" points="356.546,254.292 356.492,255.977 388.796,255.977 388.796,254.265 					"/>
					<polygon style="fill:#F6C158;" points="365.649,252.657 365.831,258.078 378.613,258.181 378.902,252.657 					"/>
					<g>
						<polygon style="fill:#E08546;" points="367.111,252.164 367.387,258.768 369.981,258.768 369.981,252.087 						"/>
						<polygon style="fill:#E08546;" points="371.409,252.092 371.564,258.642 373.879,258.642 373.879,252.009 						"/>
						<polygon style="fill:#E08546;" points="375.278,252.009 375.511,258.768 377.709,258.768 377.943,252.087 						"/>
					</g>
				</g>
				<g>
					<polygon style="fill:#F6C158;" points="385.202,254.292 385.147,255.977 417.451,255.977 417.451,254.265 					"/>
					<polygon style="fill:#F6C158;" points="394.305,252.657 394.486,258.078 407.268,258.181 407.558,252.657 					"/>
					<g>
						<polygon style="fill:#E08546;" points="395.766,252.164 396.043,258.768 398.636,258.768 398.636,252.087 						"/>
						<polygon style="fill:#E08546;" points="400.064,252.092 400.22,258.642 402.534,258.642 402.534,252.009 						"/>
						<polygon style="fill:#E08546;" points="403.933,252.009 404.167,258.768 406.365,258.768 406.598,252.087 						"/>
					</g>
				</g>
			</g>
			<g>
				<g>
					<g>
						<polygon style="fill:#15324F;" points="351.1,259.163 353.486,390.222 364.426,390.222 364.067,259.163 						"/>
						<polygon style="fill:#E08546;" points="352.705,259.163 354.417,255.977 361.03,255.977 362.82,259.163 						"/>
						<polygon style="fill:#E5556B;" points="353.486,390.222 364.426,390.222 364.286,338.994 352.725,348.408 						"/>
						<polygon style="fill:#F6C158;" points="364.067,259.163 351.1,259.163 351.839,299.733 364.153,290.599 						"/>
					</g>
					<g>
						<g>
							<polygon style="fill:#FFFFFF;" points="355.664,308.041 356.287,333.665 361.578,333.665 360.955,308.041 							"/>
							<polygon style="fill:#FFFFFF;" points="355.664,354.205 356.287,379.828 361.578,379.828 360.955,354.205 							"/>
							<polygon style="fill:#FFFFFF;" points="354.67,264.961 355.292,290.585 360.583,290.585 359.961,264.961 							"/>
						</g>
						<g>
							<path style="fill:#FFFFFF;" d="M358.206,305.509c-2.435,0-4.409-1.974-4.409-4.409s1.974-4.409,4.409-4.409
								c2.435,0,4.409,1.974,4.409,4.409S360.641,305.509,358.206,305.509z"/>
							<path style="fill:#FFFFFF;" d="M358.206,346.79c-1.998,0-3.618-1.62-3.618-3.618c0-1.998,1.62-3.618,3.618-3.618
								c1.998,0,3.618,1.62,3.618,3.618C361.824,345.17,360.204,346.79,358.206,346.79z"/>
						</g>
					</g>
				</g>
				<g>
					<g>
						<polygon style="fill:#15324F;" points="407.463,259.163 409.849,390.222 420.788,390.222 420.43,259.163 						"/>
						<polygon style="fill:#E08546;" points="409.068,259.163 410.78,255.977 417.393,255.977 419.183,259.163 						"/>
						<polygon style="fill:#E5556B;" points="409.849,390.222 420.788,390.222 420.648,338.994 409.087,348.408 						"/>
						<polygon style="fill:#F6C158;" points="420.43,259.163 407.463,259.163 408.201,299.733 420.516,290.599 						"/>
					</g>
					<g>
						<g>
							<polygon style="fill:#FFFFFF;" points="412.027,308.041 412.65,333.665 417.94,333.665 417.318,308.041 							"/>
							<polygon style="fill:#FFFFFF;" points="412.027,354.205 412.65,379.828 417.94,379.828 417.318,354.205 							"/>
							<polygon style="fill:#FFFFFF;" points="411.033,264.961 411.655,290.585 416.946,290.585 416.324,264.961 							"/>
						</g>
						<g>
							<path style="fill:#FFFFFF;" d="M414.569,305.509c-2.435,0-4.409-1.974-4.409-4.409s1.974-4.409,4.409-4.409
								s4.409,1.974,4.409,4.409S417.004,305.509,414.569,305.509z"/>
							<path style="fill:#FFFFFF;" d="M414.569,346.79c-1.998,0-3.618-1.62-3.618-3.618c0-1.998,1.62-3.618,3.618-3.618
								c1.998,0,3.618,1.62,3.618,3.618C418.187,345.17,416.567,346.79,414.569,346.79z"/>
						</g>
					</g>
				</g>
				<g>
					<g>
						<polygon style="fill:#15324F;" points="380.979,259.163 383.365,390.222 394.305,390.222 393.947,259.163 						"/>
						<polygon style="fill:#E08546;" points="382.585,259.163 384.296,255.977 390.91,255.977 392.699,259.163 						"/>
						<polygon style="fill:#E5556B;" points="383.365,390.222 394.305,390.222 394.165,338.994 382.604,348.408 						"/>
						<polygon style="fill:#F6C158;" points="393.947,259.163 380.979,259.163 381.718,299.733 394.033,290.599 						"/>
					</g>
					<g>
						<g>
							<polygon style="fill:#FFFFFF;" points="385.544,308.041 386.166,333.665 391.457,333.665 390.835,308.041 							"/>
							<polygon style="fill:#FFFFFF;" points="385.544,354.205 386.166,379.828 391.457,379.828 390.835,354.205 							"/>
							<polygon style="fill:#FFFFFF;" points="384.549,264.961 385.172,290.585 390.462,290.585 389.84,264.961 							"/>
						</g>
						<g>
							<path style="fill:#FFFFFF;" d="M388.085,305.509c-2.435,0-4.409-1.974-4.409-4.409s1.974-4.409,4.409-4.409
								s4.409,1.974,4.409,4.409S390.52,305.509,388.085,305.509z"/>
							<path style="fill:#FFFFFF;" d="M388.085,346.79c-1.998,0-3.618-1.62-3.618-3.618c0-1.998,1.62-3.618,3.618-3.618
								c1.998,0,3.618,1.62,3.618,3.618C391.704,345.17,390.084,346.79,388.085,346.79z"/>
						</g>
					</g>
				</g>
			</g>
		</g>
	</g>
</g>
</svg>
