<?xml version="1.0" encoding="utf-8"?>
<!-- Generator: Adobe Illustrator 27.5.0, SVG Export Plug-In . SVG Version: 6.00 Build 0)  -->
<svg version="1.1" xmlns="http://www.w3.org/2000/svg" xmlns:xlink="http://www.w3.org/1999/xlink" x="0px" y="0px"
	 viewBox="0 0 500 500" style="enable-background:new 0 0 500 500;" xml:space="preserve">
<g id="BACKGROUND">
	<rect style="fill:rgba(0, 0, 0, 0);" width="500" height="500"/>
</g>
<g id="OBJECTS">
	<g>
		<path style="fill:#ff0000;" d="M267.649,402.051c-20.419,0.327-38.309,0.614-54.004,0.866c2.738-0.979,3.1-2.127,3.1-2.127
			s1.22-1.592-3.108-3.391c-4.327-1.798-8.54-6.579-11.067-6.325c-2.526,0.254-4.987,1.167-6.642,1.206c0,0,3.227-1.536,4.799-3.034
			c0,0-8.105,2.537-12.78,0.455c0,0,3.423-1.492,6.542-3.464c0,0-0.405-2.766-4.043-2.146c-3.638,0.62-5.69,2.421-9.239,2.65
			c-3.549,0.229-5.268-0.364-5.268-0.364s4.488-2.713,7.845-3.919c2.724-0.979,7.173-1.544,7.173-1.544
			c0.782-0.351,3.512-7.874,17.4-30.251c2.369-3.818,6.713-9.922,9.778-14.359c3.02-4.373,5.515-9.792,5.111-13.199
			c-0.422-3.555-4.447-18.679-11.874-23.898c-7.427-5.219-11.223-8.074-11.223-8.074s5.759,1.753,9.974,4.563
			c4.215,2.81,7.279,2.846,7.279,2.846s-2.801-5.201-3.804-7.409c-1.004-2.208-11.04-7.226-14.252-8.029
			c-3.211-0.803-15.78,6.787-18.391,10.802c0.438-1.644,1.084-3.067,1.899-4.153c2.651-3.534,10.898-8.247,10.898-8.247
			s-16.256,4.893-21.796,12.076c0,0,6.964-11.694,19.145-16.494c7.241-2.853,14.366-2.549,14.366-2.549
			c-3.81-6.216-16.142-21.1-16.174-21.138c-10.773-2.182-32.666,2.008-32.666,2.008c3.741-2.609,15.302-4.74,21.519-5.734
			c2.438-0.39,4.055-0.605,4.055-0.605s-0.045-0.602-0.137-1.663c-0.4-4.623-3.084-24.979-6.698-35.007
			c-5.049-14.011-10.388-24.943-10.388-24.943s6.895,6.904,13.891,16.656c4.719,6.579,7.677,18.348,7.677,18.348
			c-2.096-22.652-19.61-48.887-19.61-48.887c9.349,7.214,17.686,18.298,23.242,27.693c-1.15-20.715-7.061-38.691-14.881-43.878
			c2.74,1.651,9.349,6.012,12.909,11.62c0,0,6.52-8.931,9.736-12.452c4.449-4.871,8.802-8.017,8.802-8.017s-0.212-0.51-0.583-1.33
			c0.66-0.747,1.391-1.522,2.225-2.307c4.3-4.046,5.227-6.261,5.227-6.261c-2.21,1.468-6.055,2.435-6.055,2.435
			s4.102-2.938,6.718-5.884c2.616-2.946,4.184-4.787,4.184-4.787c-1.06,2.83-1.802,5.662-1.802,5.662
			c2.04-0.976,7.214-3.169,11.273-9.436c4.059-6.267,10.494-14.864,13.106-18.18c2.611-3.316,5.798-8.601,5.798-8.601
			c-0.045,1.972,0.354,5.426,0.354,5.426c0.872-0.982,5.108-4.397,5.615-4.777c1.522-0.891,5.071-1.288,5.659-1.735
			c0.989-0.751,1.094-2.574,1.094-2.574c-0.723,0.918-2.441,1.074-2.441,1.074c0.513-0.929,1.763-0.892,1.483-3.211
			c-0.152-1.258-1.349-2.273-1.349-2.273s0.622,4.657-1.186,4.83l-4.261,0.522c0,0,2.571-1.044,3.245-2.194
			c0.644-1.099-0.194-4.417-0.947-5.16c-0.753-0.744-3.311-1.496-2.923-1.618c0.388-0.121,3.797-1.154,5.103-1.394
			c1.306-0.24,2.321-1.098,1.038-1.844c-1.284-0.746-5.971-0.568-5.971-0.568c-2.204-0.385-5.226,2.403-6.491,4.078
			c-1.266,1.675-0.746,4.481-1.347,7.842c-0.6,3.361-6.586,9.123-6.586,9.123c0.993-2.05,1.527-5.358,1.527-5.358
			s-6.369,6.094-13.568,8.439c-7.199,2.346-16.561,11.147-20.994,15.89c-2.117,2.265-5.069,3.98-8.207,5.487
			c4.075,1.936,5.989,7.72,6.757,10.292c0.219,0.733,0.346,1.208,0.403,1.255c0,0-3.279-4.345-6.658-6.338
			c-2.237-1.319-4.33-2.188-5.984-2.749c-1.269-0.431-2.272-0.679-2.889-0.811l-14.758,4.789c-0.49-0.937-1.573-1.567-1.573-1.567
			c-0.1,2.73-2.151,10.626-6.365,14.98c-0.828,0.856-2.046,1.843-3.09,2.641c-1.507,0.611-2.94-1.651-2.608-2.483
			c0.193-0.482,2.352-0.88,2.352-0.88s-1.145-0.456-2.012-0.474c-1.208-0.025-2.4-0.125-2.4-0.125s2.006-1.074,3.497-1.165
			c1.491-0.092,3.67-0.621,3.67-0.621s-1.575-0.584-3.048-1.023c-1.473-0.439-3.783-0.559-3.783-0.559s0,0,0.91-0.851
			c0.91-0.851,3.343-2.445,3.343-2.445l-2.723-8.2c0,0-1.1-0.799-2.38-0.993c-1.271-0.193-5.28-1.693-5.28-1.693l5.547,0.052
			l-2.142-9.869c0,0,3.95,0.663,6.175,0.238c2.226-0.425,7.474-3.746,7.474-3.746l3.249,7.386c0,0-0.213-4.288-0.51-6.082
			c-0.297-1.794-1.98-8.535-2.81-9.869c-1.387-2.23-4.378-3.509-4.378-3.509c-8.295-3.441-21.384-2.339-26.138,5.887
			c-1.438,2.489-2.561,6.217-0.752,12.063c1.153,3.727,2.043,4.76,2.043,4.76s-3.104,0.268-3.239,1.519
			c-0.135,1.252,0.569,4.97,2.291,6.812c1.722,1.841,4.093,3.49,4.093,3.49s0,0,0.974,2.887c0.264,0.784,0.693,1.764,1.199,2.802
			c-1.832,1.994-4.795,4.888-7.837,6.478c-4.811,2.515-11.702,6.836-12.067,7.065c-1.962,1.156-3.599,2.283-4.534,3.255
			c2.77-1.069,5.999-2.135,8.68-2.975c3.136-0.983,5.518-1.655,5.518-1.655s-0.873,0.725-2.428,1.846
			c-1.76,1.269-4.396,3.049-7.677,4.89c-5.667,3.18-12.629,9.74-15.912,13.76c-4.457,5.96-8.483,11.317-8.483,11.317
			s1.555,0.699,3.563,1.796c-1.365,4.093-4.539,13.323-6.225,15.883c-2.187,3.321-4.6,7.435-4.6,7.435h0c0,0,0,0,0,0l2.485-0.569
			c3.165-0.108,6.031,1.852,6.031,1.852s-7.898,3.721-12.619,10.086c-4.721,6.365-4.804,14.602-4.804,14.602
			c-1.167-1.165-4.259-4.115-5.883-5.661c-0.091,0.297-0.186,0.611-0.275,0.895c-0.068,0.218-0.159,0.417-0.234,0.629
			c0.661,3.012,1.851,7.902,2.984,9.832c2.758,4.699,8.173,8.221,8.175,8.222c-0.005-0.002-11.286-5.036-14.485-9.25
			c0,0,1.697,5.371,4.548,8.969c-0.514-0.131-1.019-0.282-1.499-0.47c-1.89-0.741-3.814-2.15-5.392-3.664
			c-0.158,2.997,0.454,4.451,2.009,5.518c1.813,1.244,2.069,2.291,3.97,2.527c1.901,0.236,1.072,0.215,3.621,1.657
			c2.549,1.442,1.472-1.246,4.077-0.484c2.605,0.762,2.803-0.795,2.803-0.795s2.011,1.329,2.86,0.168
			c0.849-1.161,0.592-3.029,1.217-6.387c0.625-3.358-0.346-3.322-1.962-5.302c-1.615-1.98-3.401-4.385-3.401-4.385
			s0.712-3.39,3.463-6.534c2.818-3.221,7.71-6.228,10.531-8.937c3.072-2.95,3.161-5.59,4.953-8.177
			c1.925-3.974,1.398-4.968,3.323-8.786c0.334-0.663,5.236-5.233,4.493-6.716c-1.873-3.739-4.027-7.017-5.814-9.479
			c0.61,0.432,1.2,0.88,1.737,1.338c3.668,3.133,7.485,7.009,7.485,7.009s3.119-3.551,5.843-6.449c0,0,5.171-4.634,14.541-15.27
			c0,0-4.426,10.991-6.732,16.296c-0.043,0.098-0.081,0.201-0.123,0.3c3.977-2.865,8.203-6.366,8.203-6.366
			s-10,15.956-12.277,25.443c-0.212,3.369,1.376,13.995,0.336,20.196c0.555-0.258,1.132-0.496,1.727-0.714
			c7.443-2.734,17.495-2.523,17.495-2.523c-2.558,0.375-5.811,1.367-9.124,2.688c-6.109,2.436-12.426,6.011-14.994,9.034
			l-0.286,0.202c-1.512,2.22-2.734,4.182-3.322,5.457c0,0,3.442-2.754,9.295-4.475c0,0-0.053,0.056-0.136,0.144
			c3.097-0.864,9.056-2.346,16.42-3.29c8.899-1.141,20.335,0.889,24.233,1.673c0.876,0.176,1.374,0.29,1.374,0.29
			c-0.267-0.016-0.524-0.029-0.787-0.045c-11.352-0.658-19.37-0.413-30.76,2.939c-3.289,0.968-8.01,2.995-12.328,4.994l-0.11-0.105
			c0,0-3.241,1.517-6.502,3.166c-1.475,0.746-2.951,1.519-4.136,2.191c-0.832,0.473-1.521,0.896-1.959,1.224
			c-1.451,1.089-3.297,7.145-4.554,11.868c-5.105,7.584-11.05,16.261-11.05,16.261s-7.58,10.126-9.11,13.185
			c0,0-3.621,1.473-9.202,5.022c0,0,3.72-5.423,8.869-7.202c0,0-4.814-1.35-7.066,0c0,0,1.25-3.694,6.219-4.652
			c0,0-3.676-5.361-8.313-8.038c-1.587-0.917-2.93-2.194-4.144-3.577c-0.797-3.081,1.129-3.553,2.18-6.226
			c1.325-3.369,0.196-5.736-2.864-6.882c-3.059-1.146-12.103,1.099-12.103,1.099s4.656-3.011,8.342-3.309
			c0,0-9.111-0.759-18.034-3.088c-7.383-1.927-13.293-1.657-18.812,0.355c-4.647,1.694-1.912,6.804,0.7,8.726
			c2.612,1.922,6.047,3.491,6.047,3.491s-1.315-3.604,3.046-5.428c0,0-1.731,3.867-0.8,6.908l1.861,1.074
			c0,0-0.875-4.757,3.665-6.891c0,0-2.271,5.192-1.494,8.144l3.298,1.229c0,0,0.168-7.119,4.807-8.759c0,0-2.498,6.287-0.686,9.354
			c0.886,1.5,2.493,2.324,5.027,2.71c0.739,0.778,1.444,1.515,1.88,2.23c1.664,2.727,2.583,13.035,6.597,20.358
			c4.015,7.323,10.782,18.337,17.92,20.376c7.139,2.04,15.042-2.295,21.416-7.904l5.864-5.609c0,0-5.609-1.798-9.433-6.38
			c0,0,3.824,0.771,6.119,1.536c2.295,0.765,8.158,1.275,8.158,1.275s-8.413-5.864-11.218-8.159
			c-1.646-1.346-2.939-6.295-3.728-10.156c5.482,5.209,13.983,13.095,17.67,15.504c7.052,4.606,10.247,4.103,10.247,4.103
			s13.483-15.949,17.958-19.391c0,0-13.017,1.856-23.001,2.201c0,0,14.803-4.819,22.376-8.262c0,0-10.764-1.519-15.771-0.341
			c0,0,12.96-3.24,22.09-7.363c9.131-4.124,26.214-9.986,31.515-9.853c0,0-18.85,5.14-25.33,12.503c0,0,6.774-1.178,10.603-0.589
			c0,0-12.959,9.131-14.727,11.487c0,0,10.382,10.939,16.272,16.83c5.891,5.891,14.654,7.617,14.654,7.617s-2.356-2.945-4.713-9.72
			c-0.893-2.568-1.319-5.178-1.361-7.622c0.627,2.489,2.158,5.289,4.133,8.36c2.38,3.703,11.814,13.567,12.635,15.026
			c5.479-4.239,9.602-4.151,9.602-4.151c-2.513,1.561-7.952,6.964-7.952,6.964s-9.081,11.053-11.96,17.511
			c-2.878,6.459-6.521,19.932-8.286,23.319c0,0,11.777-17.243,15.826-23.71c0,0-6.642,15.4-11.84,25.091
			c-4.942,9.213-7.935,14.644-9.292,17.013c-0.957,1.67-1.86,3.261-3.294,5.863c-0.066,0.036-0.129,0.098-0.189,0.2
			c-0.731,1.235-1.397,2.461-1.916,3.648c-0.005,0.01-0.01,0.018-0.015,0.027c-0.244,0.448-0.394,0.841-0.471,1.19
			c-0.225,0.647-3.203,5.857,0.923,7.784c-67.125,1.076-67.409,1.085-72.115,1.21c-4.473,5.661-11.45,9.307-19.295,9.307
			c-4.649,0-8.995-1.279-12.695-3.499c3.074,1.452,6.507,2.267,10.132,2.267c7.053,0,13.384-3.076,17.734-7.957
			c3.742-4.198,6.019-9.73,6.019-15.797c0-7.958-3.918-14.997-9.925-19.307c-0.164-0.007-16.649-0.684-24.726,11.325
			c0,0,1.041-9.076,6.771-14.281c0.388-0.352,0.796-0.687,1.228-1c-0.884,0.427-1.736,0.907-2.569,1.416
			c-7.812,4.774-13.2,13.259-13.198,27.447c0,0-2.68-7.211-0.191-16.307c0.595-2.174,1.482-4.454,2.775-6.77
			c-4.716,4.341-7.672,10.563-7.672,17.478c0,8.49,4.458,15.935,11.156,20.135l-38.655,13.109L267.649,402.051z"/>
		<path style="fill:#141414;" d="M170.789,129.821c0,0-1.551,0.961-3.939,1.725c-2.388,0.764-6.089,1.417-6.089,1.417
			s0.888,1.914,3.265,2.286c1.276,0.2,5.063-1.029,5.063-1.029c-0.879,0.038-2.072-0.609-2.072-0.609
			C168.383,133.149,170.789,129.821,170.789,129.821z"/>
	</g>
</g>
<g id="TEXTS">
	<g>
		
			<text transform="matrix(0.9709 0 -0.2394 0.9709 230.38 307.5166)" style="fill:#141414;stroke:#FFFFFF;stroke-width:11.7847;stroke-miterlimit:10; font-family:'Bungee-Regular'; font-size:61.4401px; letter-spacing:-4.12;">2024</text>
		
			<text transform="matrix(0.9709 0 -0.2394 0.9709 230.38 307.5166)" style="fill:#F3510F;stroke:#FFFFFF;stroke-width:2.0787;stroke-miterlimit:10; font-family:'Bungee-Regular'; font-size:61.4401px; letter-spacing:-4.12;">2024</text>
		
			<text transform="matrix(0.9709 0 -0.2394 0.9709 157.4425 259.0366)" style="fill:#141414;stroke:#FFFFFF;stroke-width:11.7847;stroke-miterlimit:10; font-family:'Bungee-Regular'; font-size:61.4401px; letter-spacing:-4.12;">FOOTBALL</text>
		
			<text transform="matrix(0.9709 0 -0.2394 0.9709 157.4425 259.0366)" style="fill:#F3510F;stroke:#FFFFFF;stroke-width:2.0787;stroke-miterlimit:10; font-family:'Bungee-Regular'; font-size:61.4401px; letter-spacing:-4.12;">FOOTBALL</text>
		
			<text transform="matrix(1.0154 0 0 1 227.3215 206.7504)" style="fill:#141414; font-family:'RussoOne-Regular'; font-size:21.0388px; letter-spacing:1.97;">SUPER LEAGUE</text>
	</g>
</g>
</svg>
