<?xml version="1.0" standalone="no"?>
<!DOCTYPE svg PUBLIC "-//W3C//DTD SVG 20010904//EN"
 "http://www.w3.org/TR/2001/REC-SVG-20010904/DTD/svg10.dtd">
<svg version="1.0" xmlns="http://www.w3.org/2000/svg"
 width="2000.000000pt" height="1371.000000pt" viewBox="0 0 2000.000000 1371.000000"
 preserveAspectRatio="xMidYMid meet">

<g transform="translate(0.000000,1371.000000) scale(0.100000,-0.100000)"
fill="blue" stroke="none">
<path d="M13300 13694 c-456 -39 -775 -103 -1137 -227 -507 -175 -961 -468
-1240 -800 -100 -120 -200 -271 -181 -275 8 -1 133 20 278 48 532 102 629 120
860 159 524 90 816 123 1105 124 223 2 313 -10 396 -52 98 -49 89 105 89
-1533 l0 -1438 130 0 130 0 0 1438 c0 1639 -9 1484 89 1533 80 40 181 54 391
53 396 -2 841 -66 1919 -273 173 -34 323 -61 333 -61 17 0 17 3 -4 40 -80 142
-298 388 -458 516 -486 391 -1119 637 -1885 730 -114 14 -709 27 -815 18z"/>
<path d="M6850 12740 l0 -640 64 -82 c391 -509 586 -1133 586 -1878 0 -715
-177 -1429 -541 -2180 l-109 -226 2 -249 3 -250 81 110 c99 135 218 312 311
465 97 160 242 423 259 472 12 35 14 360 14 2286 0 1234 -3 2249 -7 2256 -4 6
-8 14 -8 18 0 16 -196 216 -283 289 -126 104 -338 249 -367 249 -3 0 -5 -288
-5 -640z"/>
<path d="M12255 12284 c-22 -2 -96 -9 -165 -15 -289 -25 -661 -76 -985 -135
-232 -42 -507 -103 -519 -114 -31 -30 -54 -311 -37 -459 82 -704 688 -1307
1646 -1638 109 -37 380 -113 405 -113 13 0 26 44 64 208 275 1194 358 1625
373 1942 14 300 -19 322 -482 326 -143 1 -278 0 -300 -2z"/>
<path d="M14385 12280 c-88 -14 -161 -39 -184 -64 -93 -99 -25 -619 229 -1732
39 -170 89 -391 112 -491 38 -168 43 -183 63 -183 12 0 80 16 151 35 843 230
1478 675 1758 1232 105 210 149 394 149 623 0 159 -21 306 -44 321 -28 17
-436 102 -689 143 -526 86 -829 116 -1195 121 -159 2 -317 0 -350 -5z"/>
<path d="M4945 12110 c-10 -11 -13 -20 -7 -20 6 0 14 5 18 11 4 8 30 10 73 7
63 -5 64 -5 31 8 -53 19 -94 17 -115 -6z"/>
<path d="M4450 12080 c-140 -15 -258 -26 -262 -23 -17 10 -6 -6 31 -45 l39
-41 12 28 c12 29 65 61 102 61 12 0 35 -12 51 -27 20 -19 31 -24 34 -16 11 31
40 52 73 53 55 3 58 2 77 -30 21 -36 29 -38 37 -5 9 34 40 48 97 43 43 -4 49
-3 49 13 0 25 -18 24 -340 -11z"/>
<path d="M5122 12103 c-46 -9 -9 -22 47 -17 55 6 58 5 84 -25 l26 -32 20 20
c43 43 115 36 139 -13 l13 -27 20 25 c11 14 29 26 42 29 21 3 21 4 -6 15 -57
24 -306 40 -385 25z"/>
<path d="M5564 12018 c42 -137 67 -231 63 -242 -3 -7 -22 -17 -41 -20 l-37 -7
18 -30 c16 -26 16 -31 3 -40 -14 -9 -31 -8 -122 7 -47 8 -50 -10 -11 -57 l27
-32 -23 -19 c-13 -10 -31 -16 -40 -14 -75 23 -113 27 -140 18 -23 -8 -35 -6
-59 8 -17 10 -33 16 -36 13 -9 -9 66 -73 86 -73 10 0 60 -21 111 -46 86 -42
96 -45 148 -39 51 5 60 3 87 -20 40 -33 77 -112 93 -195 l13 -65 13 100 c6 55
12 119 12 142 1 39 4 44 61 84 66 46 68 51 73 199 l2 74 -100 16 c-107 17
-125 23 -125 45 0 27 -50 171 -66 190 -12 16 -14 16 -10 3z"/>
<path d="M4898 11960 c-3 -8 -11 -34 -17 -57 -14 -51 -26 -55 -35 -11 -3 17
-9 29 -12 25 -5 -5 35 -176 51 -219 6 -15 2 -18 -24 -18 -49 0 -123 -23 -146
-46 -14 -14 -69 -32 -175 -59 -85 -21 -184 -48 -219 -61 -35 -13 -67 -24 -72
-24 -5 0 -32 48 -59 106 -28 58 -53 104 -56 102 -2 -3 18 -57 46 -122 27 -64
50 -121 50 -128 0 -17 42 -5 236 68 98 36 208 74 244 83 36 9 75 22 87 29 12
7 37 12 56 12 34 0 35 -2 47 -50 13 -53 8 -70 -18 -70 -9 0 -60 -16 -112 -36
-176 -66 -235 -85 -348 -115 -62 -16 -119 -29 -126 -29 -6 0 -20 14 -30 30 -9
17 -42 56 -72 87 -31 31 -58 69 -61 85 -3 16 -14 33 -25 39 -23 12 -48 67 -48
104 0 30 -4 31 -37 5 -36 -28 -49 -26 -105 22 -42 35 -59 42 -103 46 -30 2
-86 -3 -127 -11 -73 -15 -162 -29 -458 -67 -260 -34 -1245 -184 -1280 -195
-85 -25 1227 141 1465 186 117 22 379 59 420 59 35 0 47 -5 55 -21 7 -11 9
-26 7 -33 -10 -25 -239 -73 -522 -111 -27 -3 -221 -40 -430 -81 -647 -127
-1416 -261 -1655 -288 -348 -40 -753 -49 -1035 -25 -82 8 -169 14 -192 14 -40
-1 -42 1 -29 20 17 26 61 48 166 82 l85 28 -95 3 c-52 2 -104 1 -115 -2 -26
-7 -46 -40 -60 -101 -11 -44 -9 -64 11 -153 13 -57 33 -122 46 -145 l23 -42
75 -8 c41 -4 134 -16 205 -27 192 -28 285 -33 430 -20 72 6 240 15 375 20 281
11 328 17 615 70 116 22 359 64 540 95 406 69 845 149 1195 220 387 78 358 69
401 119 46 52 82 68 140 64 52 -4 53 -5 124 -198 l46 -125 72 -32 c84 -37 134
-48 175 -38 29 6 30 7 34 80 5 112 49 158 212 225 110 45 116 46 116 25 0 -9
19 -24 44 -35 48 -20 64 -43 96 -134 10 -28 21 -58 24 -66 5 -13 -7 -15 -81
-15 -59 0 -106 -6 -143 -19 -78 -26 -189 -93 -202 -122 -9 -19 -4 -65 26 -227
45 -235 44 -265 -8 -394 -20 -48 -52 -142 -71 -208 l-35 -120 -183 -183 c-186
-188 -310 -302 -327 -302 -6 0 -10 10 -10 23 0 46 -14 51 -59 22 -22 -15 -41
-31 -41 -34 0 -4 9 -35 21 -69 23 -69 26 -70 81 -8 l27 31 1 -28 c0 -18 -13
-42 -38 -70 -36 -39 -38 -44 -30 -82 5 -22 10 -82 11 -134 l2 -95 -40 -27
c-61 -43 -191 -105 -291 -138 -195 -66 -542 -115 -630 -91 -87 25 -427 277
-481 357 -39 57 -62 152 -45 186 10 20 11 18 11 -17 1 -21 15 -67 31 -102 29
-60 39 -70 175 -171 178 -134 304 -213 341 -216 28 -2 30 1 66 103 20 58 37
111 37 119 1 11 -12 12 -66 7 -227 -23 -251 -20 -320 38 -60 50 -36 69 30 23
49 -33 88 -38 222 -27 70 5 134 14 143 19 9 5 28 46 43 90 l28 81 -27 -6 c-15
-4 -123 -31 -241 -60 -227 -57 -275 -63 -320 -39 -31 15 -73 95 -85 158 -10
53 7 46 23 -10 19 -63 79 -123 124 -123 41 0 480 113 702 180 287 87 511 178
559 226 14 14 15 46 1 62 -1 2 -29 -6 -61 -17 -33 -10 -75 -22 -95 -26 l-36
-7 -32 68 c-52 111 -53 107 29 150 78 41 118 84 126 136 l5 33 -141 70 -142
70 -45 75 c-71 116 -87 138 -166 225 -42 45 -95 92 -123 107 -69 37 -312 108
-371 108 -78 0 -277 -54 -334 -91 -96 -62 -162 -119 -211 -184 -62 -83 -149
-263 -183 -380 -24 -84 -25 -95 -15 -173 14 -105 47 -199 118 -331 30 -57 68
-133 83 -170 22 -52 29 -60 29 -38 0 54 18 17 25 -52 l7 -70 56 -42 c56 -41
91 -77 92 -91 0 -19 -29 -4 -77 37 -28 25 -54 45 -58 45 -11 0 107 -100 160
-136 27 -19 59 -34 71 -34 22 0 47 -16 141 -92 32 -27 66 -48 75 -48 24 0 48
-11 48 -21 0 -14 -48 -10 -81 7 -17 8 -57 40 -90 70 -32 30 -64 54 -71 54 -7
0 -30 -6 -53 -14 -22 -8 -61 -18 -87 -21 -35 -4 -48 -11 -48 -22 0 -9 23 -65
50 -125 31 -68 50 -123 50 -146 0 -72 16 -105 70 -141 28 -19 55 -39 60 -46 5
-6 14 -81 20 -165 11 -164 23 -242 47 -301 27 -70 972 -956 1463 -1373 185
-157 195 -173 240 -358 17 -68 42 -161 56 -208 22 -73 25 -100 23 -190 -7
-231 -4 -304 14 -337 10 -18 22 -33 28 -33 15 0 206 133 370 257 385 291 782
679 1093 1068 l88 109 -31 28 c-17 15 -43 31 -58 34 -40 10 -53 23 -53 53 0
17 -30 73 -78 146 -43 66 -154 244 -246 395 -93 151 -186 303 -208 336 -42 66
-355 370 -618 598 -80 70 -149 132 -153 139 -12 17 338 725 443 897 130 214
133 221 190 470 12 52 55 230 96 395 63 251 79 303 98 320 49 41 61 100 24
114 -13 5 -38 20 -55 34 -32 23 -35 24 -85 10 -91 -24 -231 6 -257 55 -30 57
-1 114 87 171 26 16 53 40 60 52 14 22 13 22 -30 14 -112 -21 -126 -4 -40 45
34 19 61 40 59 45 -1 6 -67 42 -145 80 -88 43 -142 76 -142 85 0 8 -11 51 -25
95 -31 98 -32 167 -4 230 12 28 18 56 15 71 -5 20 -12 24 -46 24 -44 0 -47 5
-53 90 -1 25 -5 38 -9 30z"/>
<path d="M1893 11473 c9 -2 23 -2 30 0 6 3 -1 5 -18 5 -16 0 -22 -2 -12 -5z"/>
<path d="M3688 9466 c-100 -34 -118 -44 -118 -62 0 -17 18 -90 35 -141 5 -14
86 14 208 70 67 30 69 32 63 61 -12 62 -38 116 -55 115 -9 -1 -69 -20 -133
-43z"/>
<path d="M3388 9367 l-127 -40 -30 -89 c-30 -88 -30 -88 -8 -88 33 1 182 35
267 62 l75 24 -3 35 c-3 38 -30 127 -40 132 -4 2 -64 -14 -134 -36z"/>
<path d="M3835 9292 c-27 -14 -86 -38 -130 -54 -44 -16 -81 -31 -82 -32 -4 -3
34 -207 40 -212 7 -7 129 41 198 77 l59 32 -5 46 c-2 25 -7 72 -10 103 -4 32
-9 60 -13 62 -4 2 -29 -8 -57 -22z"/>
<path d="M3440 9155 c-63 -19 -148 -39 -187 -46 l-73 -13 -39 -119 -40 -120
72 7 c110 11 304 51 377 79 l65 24 -3 49 c-6 86 -27 169 -42 170 -8 1 -67 -13
-130 -31z"/>
<path d="M9552 8388 l3 -293 288 -3 287 -2 0 -705 0 -705 415 0 415 0 0 705 0
705 283 2 282 3 3 293 2 292 -990 0 -990 0 2 -292z"/>
<path d="M12085 8663 c-4 -10 -69 -184 -145 -388 -75 -203 -239 -643 -364
-976 -124 -334 -226 -609 -226 -613 0 -3 171 -6 379 -6 l379 0 55 163 c30 89
97 284 147 432 51 149 118 346 149 439 32 93 61 164 65 158 6 -10 197 -566
348 -1014 l60 -178 400 0 c316 0 399 3 395 13 -3 8 -741 1865 -784 1975 -4 9
-99 12 -428 12 -393 0 -423 -1 -430 -17z"/>
<path d="M13502 8388 l3 -293 288 -3 287 -2 0 -705 0 -705 415 0 415 0 0 705
0 705 283 2 282 3 3 293 2 292 -990 0 -990 0 2 -292z"/>
<path d="M16029 8653 c-6 -16 -67 -178 -135 -360 -251 -673 -378 -1015 -485
-1302 -61 -162 -112 -298 -115 -303 -3 -4 167 -8 378 -8 l383 0 17 48 c34 96
351 1009 375 1080 14 41 29 70 33 65 4 -4 96 -275 205 -600 l197 -593 398 0
399 0 -401 1000 -402 1000 -418 0 -418 0 -11 -27z"/>
<path d="M6265 6537 c-415 -421 -918 -804 -1422 -1084 l-162 -90 51 -69 c71
-98 86 -131 120 -267 16 -67 34 -130 39 -140 9 -15 25 -100 46 -237 3 -19 9
-39 13 -45 13 -17 40 -190 40 -259 0 -35 7 -126 16 -203 24 -200 24 -599 0
-808 -17 -150 -20 -161 -50 -201 -18 -23 -54 -82 -80 -132 -62 -117 -97 -157
-215 -247 -53 -40 -142 -110 -199 -156 l-103 -84 -116 -240 c-63 -132 -131
-262 -150 -289 -19 -27 -43 -67 -53 -90 -10 -23 -41 -69 -69 -101 -80 -92
-184 -233 -256 -347 -92 -147 -116 -172 -298 -312 -237 -181 -238 -182 -257
-356 -6 -52 -18 -117 -27 -145 -19 -58 -19 -99 1 -169 8 -28 17 -89 21 -136 9
-115 20 -154 56 -195 41 -47 156 -101 254 -121 76 -16 92 -15 320 5 386 34
352 29 365 61 6 16 10 60 8 101 l-3 74 236 315 c130 173 274 358 321 410 84
95 235 240 249 240 11 0 141 -159 205 -251 89 -126 167 -182 291 -210 65 -15
80 -9 103 43 18 43 26 90 55 343 16 139 37 237 60 271 8 12 26 25 42 28 15 4
64 21 108 37 79 30 83 34 290 237 303 298 612 589 1070 1007 132 120 278 255
325 301 118 114 182 156 334 214 257 100 251 97 314 169 224 254 430 525 480
628 33 70 34 75 22 122 -17 72 -61 135 -117 168 -41 24 -59 28 -123 28 -64 0
-85 -5 -145 -33 -38 -18 -93 -51 -123 -73 l-52 -40 -19 43 c-10 24 -24 61 -31
83 -22 66 -126 281 -174 358 -25 40 -52 92 -60 115 -8 23 -37 79 -65 126 -27
46 -95 174 -150 283 -124 246 -203 367 -299 458 -41 39 -137 135 -215 215 -78
80 -192 195 -253 255 -142 139 -161 169 -178 275 -11 67 -18 87 -36 100 -12 8
-50 40 -84 71 -68 62 -105 89 -121 88 -5 0 -73 -64 -150 -142z m2209 -2206
c21 -5 52 -22 68 -38 34 -31 88 -120 88 -143 0 -29 -177 -215 -285 -300 -60
-47 -140 -112 -179 -145 -118 -101 -146 -120 -274 -189 -86 -47 -138 -69 -173
-73 -27 -3 -49 -2 -49 3 0 5 40 50 89 100 87 91 128 122 267 202 151 88 177
171 110 361 -14 41 -26 78 -26 82 0 10 66 55 135 94 91 51 152 63 229 46z
m-2153 -485 c104 -26 253 -95 263 -122 7 -19 16 -21 -144 35 -157 55 -241 71
-368 70 l-107 -1 55 -12 55 -13 -90 -7 c-98 -8 -220 -23 -247 -32 -29 -9 -20
9 15 32 42 27 138 62 202 74 83 15 259 4 366 -24z m-814 -2586 c16 -108 8
-262 -16 -292 -13 -16 -24 -19 -47 -14 -56 12 -92 43 -124 105 -16 33 -48 88
-70 122 -22 34 -40 69 -40 77 0 26 32 52 64 52 17 0 60 9 96 20 36 10 78 18
95 17 29 -2 29 -3 42 -87z m-1917 -585 c89 -21 246 -73 292 -96 49 -25 60 -44
97 -171 36 -127 38 -147 11 -181 -32 -40 -100 -51 -271 -44 -176 8 -221 17
-319 65 -98 48 -103 58 -96 195 6 138 29 191 96 225 52 26 100 28 190 7z"/>
<path d="M11460 6013 c0 -15 5 -57 10 -93 29 -202 80 -675 105 -975 52 -633
69 -1169 62 -1970 -8 -945 -50 -1667 -155 -2707 l-27 -268 913 0 914 0 -6 73
c-39 458 -111 1632 -126 2057 -11 298 -13 660 -5 660 3 0 53 -14 112 -30 526
-148 1050 -107 1494 115 656 329 1097 1064 1066 1780 -7 160 -27 279 -72 413
-158 471 -529 786 -1077 912 -240 55 -197 53 -1760 57 l-1448 4 0 -28z m2092
-698 c343 -88 562 -429 585 -913 25 -545 -221 -1075 -582 -1254 -109 -54 -258
-84 -361 -72 l-54 7 2 1116 3 1116 75 12 c93 15 248 9 332 -12z"/>
<path d="M9060 6013 c0 -5 9 -78 20 -163 62 -480 109 -1022 141 -1635 17 -329
23 -1409 10 -1825 -23 -731 -66 -1416 -140 -2186 l-17 -182 271 -6 c148 -3
561 -8 918 -12 l647 -6 0 34 c0 18 -5 75 -10 125 -31 293 -80 979 -100 1383
-40 845 -40 1944 0 2825 20 424 71 1180 100 1483 5 53 10 114 10 135 l0 37
-925 0 c-509 0 -925 -3 -925 -7z"/>
<path d="M16060 6004 c0 -8 9 -88 20 -177 143 -1186 170 -2763 75 -4412 -17
-295 -60 -937 -75 -1125 -6 -69 -13 -163 -17 -209 l-6 -83 39 6 c21 3 172 20
334 37 l295 31 780 -6 c936 -7 1982 -35 2342 -62 l82 -7 5 34 c3 19 12 149 21
289 30 468 35 545 39 577 5 32 3 33 -29 33 -50 0 -236 -25 -550 -75 -568 -89
-846 -113 -1102 -95 -209 14 -442 56 -469 84 -19 19 -69 614 -101 1201 -21
401 -25 1621 -5 1985 43 800 98 1432 162 1880 5 36 10 75 10 88 l0 22 -925 0
c-835 0 -925 -2 -925 -16z"/>
</g>
</svg>
